<svg width="152" height="152" viewBox="0 0 152 152" fill="none" xmlns="http://www.w3.org/2000/svg">
<path d="M75.8695 144.687C114.011 144.687 144.948 113.886 144.948 75.8694C144.948 37.8527 114.011 7.05155 75.8695 7.05155C37.7279 7.05155 6.79042 37.8527 6.79042 75.8694C6.79042 113.886 37.7279 144.687 75.8695 144.687Z" fill="#5B8B7B" stroke="white" stroke-width="5.22337"/>
<path d="M149.388 75.8694C149.388 116.324 116.535 149.127 76 149.127C35.4645 149.127 2.61168 116.324 2.61168 75.8694C2.61168 35.4145 35.4645 2.61168 76 2.61168C116.535 2.61168 149.388 35.4145 149.388 75.8694Z" stroke="#5B8B7B" stroke-width="5.22337"/>
<path d="M58.6324 98.5974L43.8763 80.3157V111.134C46.5316 111.09 51.5775 111.134 54.1925 111.134C57.1959 111.134 58.6324 109.044 58.6324 105.91V98.5974Z" fill="white"/>
<path d="M107.863 111.134V80.3157L92.976 98.5974C92.9325 99.1633 92.8715 101.418 92.976 105.91C93.0805 110.402 96.3277 111.264 97.9382 111.134H107.863Z" fill="white"/>
<path d="M43.8763 42.1852V62.4257L73.2578 99.3811C75.6083 101.862 76.9141 100.948 78.22 99.3811L107.732 62.4256V42.1852C106.296 39.1816 103.945 40.2263 102.639 42.0546L78.22 72.2194C76.1306 74.5699 74.8248 73.917 73.3884 72.2194L48.708 41.6629C46.2007 38.7378 44.4422 40.9664 43.8763 42.1852Z" fill="white"/>
<path d="M66.9152 41.6532C66.1377 40.6886 66.1448 39.3105 66.9323 38.3541L73.8587 29.9413C74.9112 28.663 76.8724 28.6743 77.9102 29.9647L84.6366 38.3291C85.4822 39.3806 85.482 40.8789 84.6362 41.9303L77.9291 50.2672C76.8844 51.5658 74.907 51.5668 73.861 50.2692L66.9152 41.6532Z" fill="#FFFEFF"/>
<path d="M78.5108 40.1298C78.5108 41.5722 77.3415 42.7415 75.8991 42.7415C74.4567 42.7415 73.2874 41.5722 73.2874 40.1298C73.2874 38.6874 74.4567 37.5182 75.8991 37.5182C77.3415 37.5182 78.5108 38.6874 78.5108 40.1298Z" fill="#5B8B7B"/>
</svg>
