<svg width="16" height="16" viewBox="0 0 16 16" fill="none" xmlns="http://www.w3.org/2000/svg">
<path d="M7.98631 15.2302C12.0012 15.2302 15.2578 11.988 15.2578 7.98625C15.2578 3.98449 12.0012 0.742267 7.98631 0.742267C3.9714 0.742267 0.714832 3.98449 0.714832 7.98625C0.714832 11.988 3.9714 15.2302 7.98631 15.2302Z" fill="#5B8B7B" stroke="white" stroke-width="0.549828"/>
<path d="M15.7251 7.98625C15.7251 12.2447 12.2669 15.6976 8 15.6976C3.73311 15.6976 0.274914 12.2447 0.274914 7.98625C0.274914 3.72784 3.73311 0.274914 8 0.274914C12.2669 0.274914 15.7251 3.72784 15.7251 7.98625Z" stroke="#5B8B7B" stroke-width="0.549828"/>
<path d="M6.17179 10.3787L4.61853 8.45428V11.6983C4.89803 11.6937 5.42918 11.6983 5.70444 11.6983C6.02059 11.6983 6.17179 11.4783 6.17179 11.1484V10.3787Z" fill="white"/>
<path d="M11.3539 11.6983V8.45428L9.78692 10.3787C9.78233 10.4382 9.77592 10.6756 9.78692 11.1484C9.79791 11.6213 10.1397 11.712 10.3093 11.6983H11.3539Z" fill="white"/>
<path d="M4.61853 4.44054V6.57113L7.71131 10.4612C7.95874 10.7223 8.09619 10.6261 8.23365 10.4612L11.3402 6.57112V4.44054C11.189 4.12438 10.9416 4.23435 10.8041 4.4268L8.23365 7.60204C8.01372 7.84947 7.87626 7.78074 7.72506 7.60204L5.12712 4.38556C4.8632 4.07766 4.67809 4.31225 4.61853 4.44054Z" fill="white"/>
<path d="M7.04368 4.38454C6.96183 4.28301 6.96258 4.13795 7.04547 4.03727L7.77457 3.15172C7.88536 3.01715 8.0918 3.01834 8.20104 3.15418L8.90908 4.03464C8.99809 4.14533 8.99808 4.30304 8.90905 4.41371L8.20303 5.29128C8.09306 5.42798 7.88492 5.42808 7.77481 5.29149L7.04368 4.38454Z" fill="#FFFEFF"/>
<path d="M8.26426 4.22419C8.26426 4.37602 8.14118 4.49911 7.98935 4.49911C7.83752 4.49911 7.71443 4.37602 7.71443 4.22419C7.71443 4.07236 7.83752 3.94928 7.98935 3.94928C8.14118 3.94928 8.26426 4.07236 8.26426 4.22419Z" fill="#5B8B7B"/>
</svg>
