<svg width="32" height="32" viewBox="0 0 32 32" fill="none" xmlns="http://www.w3.org/2000/svg">
<path d="M15.9725 30.4605C24.0023 30.4605 30.5155 23.976 30.5155 15.9725C30.5155 7.96898 24.0023 1.48453 15.9725 1.48453C7.94269 1.48453 1.42954 7.96898 1.42954 15.9725C1.42954 23.976 7.94269 30.4605 15.9725 30.4605Z" fill="#5B8B7B" stroke="white" stroke-width="1.09966"/>
<path d="M31.4502 15.9725C31.4502 24.4893 24.5338 31.3952 16 31.3952C7.46621 31.3952 0.549828 24.4893 0.549828 15.9725C0.549828 7.45569 7.46621 0.549828 16 0.549828C24.5338 0.549828 31.4502 7.45569 31.4502 15.9725Z" stroke="#5B8B7B" stroke-width="1.09966"/>
<path d="M12.3436 20.7574L9.23706 16.9086V23.3965C9.79605 23.3874 10.8584 23.3965 11.4089 23.3965C12.0412 23.3965 12.3436 22.9567 12.3436 22.2969V20.7574Z" fill="white"/>
<path d="M22.7079 23.3965V16.9086L19.5738 20.7574C19.5647 20.8765 19.5518 21.3512 19.5738 22.2969C19.5958 23.2426 20.2794 23.424 20.6185 23.3965H22.7079Z" fill="white"/>
<path d="M9.23706 8.88108V13.1423L15.4226 20.9223C15.9175 21.4446 16.1924 21.2522 16.4673 20.9223L22.6804 13.1422V8.88108C22.378 8.24876 21.8831 8.46869 21.6082 8.8536L16.4673 15.2041C16.0274 15.6989 15.7525 15.5615 15.4501 15.2041L10.2542 8.77113C9.72641 8.15532 9.35619 8.6245 9.23706 8.88108Z" fill="white"/>
<path d="M14.0874 8.76909C13.9237 8.56603 13.9252 8.2759 14.0909 8.07454L15.5491 6.30344C15.7707 6.03431 16.1836 6.03669 16.4021 6.30835L17.8182 8.06928C17.9962 8.29066 17.9962 8.60609 17.8181 8.82742L16.4061 10.5826C16.1861 10.856 15.7698 10.8562 15.5496 10.583L14.0874 8.76909Z" fill="#FFFEFF"/>
<path d="M16.5285 8.44838C16.5285 8.75205 16.2824 8.99821 15.9787 8.99821C15.675 8.99821 15.4289 8.75205 15.4289 8.44838C15.4289 8.14472 15.675 7.89856 15.9787 7.89856C16.2824 7.89856 16.5285 8.14472 16.5285 8.44838Z" fill="#5B8B7B"/>
</svg>
