<svg width="178" height="79" viewBox="0 0 178 79" fill="none" xmlns="http://www.w3.org/2000/svg">
<path fill-rule="evenodd" clip-rule="evenodd" d="M177.539 0.716202H163.653C163.646 0.722237 163.639 0.728271 163.633 0.734856L163.622 0.745285H151.536L129.037 18.5181C127.674 19.6291 127.947 20.7395 129.037 21.7117L151.207 39.2187L129.037 56.5241C127.674 57.6208 127.947 58.717 129.037 59.6765L151.6 77.531L171.259 77.4941L177.539 77.8053V64.2955L165.018 73.9151C164.845 74.0654 164.691 74.2147 164.554 74.3628C164.375 74.1955 164.198 74.0484 164.041 73.9294L145.517 59.6765C144.291 58.717 144.291 57.3465 145.517 56.5241L164.041 42.2713C164.214 42.1199 164.369 41.969 164.506 41.8203C164.684 41.986 164.86 42.1325 165.018 42.2504L177.539 51.8701V26.0653L165.018 35.6905C164.752 35.922 164.53 36.1519 164.346 36.3768C164.254 36.2923 164.165 36.2171 164.08 36.1524L145.536 21.7117C144.309 20.7395 144.309 19.351 145.536 18.5181L164.08 4.07766C164.255 3.92294 164.411 3.76933 164.55 3.61681C164.713 3.76659 164.873 3.89881 165.018 4.00744L177.539 13.6326V0.716202ZM164.756 21.3864C166.803 21.1132 166.803 18.6547 164.757 18.3815C162.592 18.3969 162.851 21.2503 164.756 21.3864ZM164.756 14.4292V14.4199C165.084 14.4199 165.302 14.4199 165.984 14.8297L170.896 18.6547C171.715 19.4738 171.578 20.2935 170.896 20.9765L165.984 24.8013C165.553 25.233 165.15 25.2956 164.91 25.2577L164.911 25.2671C164.583 25.2671 164.365 25.267 163.683 24.8572L158.771 21.0325C157.952 20.2129 158.089 19.3932 158.771 18.7102L163.683 14.8857C164.114 14.4544 164.516 14.3919 164.756 14.4292ZM123.405 18.1994L100.803 0.311325H87.1509C86.0614 1.29501 87.4977 3.31178 88.4053 3.99427L106.927 18.1994C108.152 19.1551 108.152 20.5212 106.927 21.3408L88.4053 35.5456C86.8358 36.9101 86.4699 39.1007 86.6447 39.7152C86.8189 40.8092 87.7445 41.8988 88.4053 42.3997L106.927 56.7063C108.152 57.6697 108.152 59.0451 106.927 59.8708L88.4053 74.1774C86.0685 76.4338 86.6048 78.354 87.1509 78.354H100.803L123.405 59.8708C124.767 58.7702 124.494 57.6697 123.405 56.7063L100.891 38.8495L100.642 38.8434L100.934 38.8237L123.405 21.3408C124.767 20.248 124.494 19.1551 123.405 18.1994ZM112.593 0.579597L140.973 0.579597L129.511 9.45807H123.372L112.593 0.579597ZM164.757 56.6887C166.803 56.963 166.803 59.4302 164.756 59.704C162.851 59.5674 162.592 56.7041 164.757 56.6887ZM163.683 53.1802C164.114 52.7474 164.516 52.6848 164.756 52.7227V52.7133C165.084 52.7133 165.302 52.7133 165.984 53.1243L170.896 56.9625C171.715 57.7849 171.578 58.6073 170.896 59.2931L165.984 63.1313C165.553 63.5641 165.15 63.6267 164.91 63.5888L164.911 63.5981C164.583 63.5981 164.365 63.5981 163.683 63.1867L158.771 59.3485C157.952 58.5261 158.089 57.7037 158.771 57.0184L163.683 53.1802ZM112.593 77.7533L140.973 77.7533L130.194 68.843H124.054L112.593 77.7533ZM130.559 30.0868L141.329 39.0486L130.559 47.8772H124.414L112.652 39.0486L124.414 30.0868H130.559Z" fill="#097E77"/>
<path d="M88.7853 15.1287V15.1194C89.113 15.1194 89.3309 15.1194 90.0135 15.5292L94.925 19.3542C95.7436 20.1734 95.6071 20.993 94.925 21.676L90.0135 25.5005C89.5821 25.9323 89.1791 25.9949 88.9393 25.957L88.9399 25.9663C88.6122 25.9663 88.3943 25.9663 87.7117 25.5565L82.8002 21.732C81.9816 20.9124 82.1181 20.0927 82.8002 19.4097L87.7117 15.5852C88.1426 15.1539 88.5456 15.0914 88.7853 15.1287Z" fill="#097E77"/>
<path d="M88.7853 52.9841V52.9748C89.113 52.9748 89.3309 52.9748 90.0135 53.3846L94.925 57.2097C95.7436 58.0288 95.6071 58.8484 94.925 59.5315L90.0135 63.356C89.5821 63.7878 89.1791 63.8503 88.9393 63.8124L88.9399 63.8218C88.6122 63.8218 88.3943 63.8218 87.7117 63.4119L82.8002 59.5874C81.9816 58.7678 82.1181 57.9481 82.8002 57.2651L87.7117 53.4406C88.1426 53.0094 88.5456 52.9468 88.7853 52.9841Z" fill="#097E77"/>
<path fill-rule="evenodd" clip-rule="evenodd" d="M0.322266 78.4982H14.208C14.215 78.4921 14.2218 78.4861 14.2285 78.4795L14.2394 78.4691H26.3257L48.8239 60.6962C50.1873 59.5853 49.9147 58.4748 48.8239 57.5027L26.6542 39.9959L48.8248 22.6905C50.1869 21.5938 49.9145 20.4976 48.8248 19.538L26.2616 1.68344L6.60232 1.7202L0.322266 1.40913L0.322266 14.9191L12.8436 5.29946C13.0162 5.14913 13.1701 4.99991 13.307 4.85178C13.4859 5.01911 13.6629 5.16614 13.8206 5.28519L32.3442 19.538C33.5701 20.4976 33.5701 21.8681 32.3442 22.6905L13.8206 36.9433C13.647 37.0947 13.4924 37.2456 13.3549 37.3943C13.1767 37.2286 13.0007 37.0821 12.8436 36.9642L0.322266 27.3445L0.322266 53.1493L12.8436 43.5241C13.1095 43.2926 13.331 43.0627 13.5146 42.8378C13.6069 42.9223 13.6967 42.9974 13.7814 43.0622L32.3252 57.5027C33.5524 58.4748 33.5524 59.8634 32.3252 60.6962L13.7814 75.1367C13.6061 75.2914 13.4502 75.445 13.3117 75.5976C13.1484 75.4478 12.988 75.3156 12.8436 75.2069L0.322266 65.5818L0.322266 78.4982ZM13.1051 57.828C11.0587 58.1012 11.0585 60.5596 13.1046 60.8328C15.2692 60.8175 15.0101 57.9641 13.1051 57.828ZM13.1051 64.7852V64.7945C12.7776 64.7945 12.5593 64.7945 11.8771 64.3847L6.96526 60.5596C6.14655 59.7405 6.28302 58.9209 6.9652 58.2378L11.8771 54.4133C12.3084 53.9816 12.7113 53.919 12.9511 53.9569L12.9505 53.9475C13.2779 53.9475 13.4962 53.9475 14.1784 54.3574L19.0904 58.1819C19.909 59.0015 19.7725 59.8212 19.0904 60.5042L14.1784 64.3287C13.7476 64.7599 13.345 64.8225 13.1051 64.7852ZM54.4564 61.015L76.9269 78.4982H90.8179C91.9073 77.5145 90.3635 75.9026 89.4559 75.2201L70.9347 61.015C69.7092 60.0593 69.7092 58.6932 70.9347 57.8735L89.4559 43.669C91.0254 42.3045 91.3913 40.1138 91.2165 39.4994C91.0423 38.4054 90.1167 37.3158 89.4559 36.8149L70.9347 22.5083C69.7092 21.5449 69.7092 20.1695 70.9347 19.3438L89.4559 5.03722C91.7927 2.7807 91.5196 0.311867 90.9735 0.311867H77.2197L54.4564 19.3438C53.0947 20.4444 53.3671 21.5449 54.4564 22.5083L76.9701 40.3651L77.2197 40.3711L76.9269 40.3909L54.4564 57.8735C53.0947 58.9664 53.3671 60.0593 54.4564 61.015ZM65.2684 78.6348H36.8886L48.3497 69.7563H54.4897L65.2684 78.6348ZM13.1047 22.5259C11.0585 22.2516 11.0586 19.7844 13.1051 19.5106C15.0101 19.6472 15.2692 22.5105 13.1047 22.5259ZM14.1784 26.0344C13.7476 26.4672 13.345 26.5298 13.1051 26.4919V26.5012C12.7776 26.5012 12.5593 26.5012 11.8771 26.0903L6.96526 22.2521C6.14655 21.4297 6.28302 20.6073 6.9652 19.9215L11.8771 16.0833C12.3084 15.6505 12.7113 15.5879 12.9511 15.6258L12.9505 15.6164C13.2779 15.6164 13.4962 15.6164 14.1784 16.0279L19.0904 19.8661C19.909 20.6885 19.7725 21.5109 19.0904 22.1961L14.1784 26.0344ZM65.2684 1.46124H36.8886L47.6675 10.3715H53.8074L65.2684 1.46124ZM47.3022 49.1278L36.5319 40.166L47.3022 31.3374H53.4473L65.2089 40.166L53.4473 49.1278H47.3022Z" fill="#097E77"/>
</svg>
