<svg width="28" height="28" viewBox="0 0 28 28" fill="none" xmlns="http://www.w3.org/2000/svg">
<path d="M23.3917 12.8335H4.60833C3.99622 12.8335 3.5 13.3297 3.5 13.9418V14.0585C3.5 14.6706 3.99622 15.1668 4.60833 15.1668H23.3917C24.0038 15.1668 24.5 14.6706 24.5 14.0585V13.9418C24.5 13.3297 24.0038 12.8335 23.3917 12.8335Z" fill="white"/>
<path d="M23.3917 18.6665H4.60833C3.99622 18.6665 3.5 19.1627 3.5 19.7748V19.8915C3.5 20.5036 3.99622 20.9998 4.60833 20.9998H23.3917C24.0038 20.9998 24.5 20.5036 24.5 19.8915V19.7748C24.5 19.1627 24.0038 18.6665 23.3917 18.6665Z" fill="white"/>
<path d="M23.3917 7H4.60833C3.99622 7 3.5 7.49622 3.5 8.10833V8.225C3.5 8.83712 3.99622 9.33333 4.60833 9.33333H23.3917C24.0038 9.33333 24.5 8.83712 24.5 8.225V8.10833C24.5 7.49622 24.0038 7 23.3917 7Z" fill="white"/>
</svg>
