<svg width="23" height="18" viewBox="0 0 28 23" fill="none" xmlns="http://www.w3.org/2000/svg">
<path d="M27.313 4.14431C27.314 3.40246 27.1008 2.67609 26.6989 2.05255C26.297 1.42901 25.7235 0.934838 25.0474 0.629462C24.3713 0.324087 23.6214 0.220507 22.8878 0.331179C22.1543 0.44185 21.4683 0.762061 20.9124 1.25331C20.6115 1.51878 20.3535 1.82932 20.1477 2.17386V2.17747C20.1152 2.23162 20.0845 2.28697 20.0545 2.34232L20.04 2.3718C20.0148 2.41934 19.9913 2.46747 19.9684 2.5162C19.9612 2.53125 19.9546 2.54629 19.948 2.56133C19.9281 2.60525 19.9089 2.64977 19.8908 2.6949C19.883 2.71355 19.8758 2.7322 19.8685 2.75085C19.8523 2.79297 19.8367 2.83509 19.8216 2.87781L19.8 2.94158C19.7867 2.9825 19.7741 3.02401 19.7621 3.06553C19.7548 3.08899 19.7482 3.11185 19.7422 3.13532C19.7308 3.17563 19.7211 3.21654 19.7115 3.25565C19.7055 3.28032 19.6995 3.30499 19.6941 3.32966C19.6856 3.37057 19.6778 3.41209 19.6706 3.44999C19.6658 3.47526 19.661 3.50053 19.6568 3.5258C19.6501 3.56792 19.6447 3.61064 19.6393 3.65335C19.6363 3.67802 19.6327 3.70269 19.6297 3.72796C19.6249 3.77429 19.6219 3.82062 19.6183 3.86755C19.6183 3.88921 19.6146 3.91087 19.6134 3.93253C19.6098 4.00112 19.6074 4.06971 19.6074 4.1395C19.6074 4.19967 19.6074 4.25983 19.6122 4.31639V4.3549C19.6154 4.41145 19.6197 4.46801 19.6249 4.52457L19.6285 4.55345C19.6339 4.60459 19.6399 4.65513 19.6477 4.70507C19.6477 4.71529 19.6477 4.72612 19.6519 4.73635C19.6604 4.7911 19.6706 4.84525 19.6814 4.89941C19.6814 4.91264 19.6868 4.92528 19.6892 4.93851C19.7001 4.99026 19.7121 5.042 19.7253 5.09314C19.7253 5.09735 19.7253 5.10096 19.7253 5.10457C19.7392 5.15812 19.7542 5.21047 19.7705 5.26281L19.7831 5.30372C19.7994 5.35487 19.8162 5.4048 19.8343 5.45474C19.8379 5.46557 19.8421 5.4764 19.8463 5.48723C19.8625 5.52995 19.8794 5.57267 19.8968 5.61479C19.9016 5.62742 19.9064 5.63945 19.9119 5.65149C19.9323 5.69902 19.9534 5.74655 19.9756 5.79348L19.9955 5.83379C20.0166 5.87591 20.0376 5.91803 20.0599 5.95954C20.3739 6.54323 20.8326 7.0365 21.392 7.39211C21.5388 7.48591 21.692 7.56934 21.8504 7.6418L21.8739 7.65263C21.9806 7.70076 22.0895 7.74408 22.2006 7.78259L22.2578 7.80184L22.348 7.83012C22.3751 7.83854 22.4022 7.84576 22.4298 7.85359L22.5454 7.88367L22.6494 7.90774L22.7186 7.92158L22.8287 7.94143L22.8853 7.95045C22.9395 7.95828 22.9942 7.9655 23.049 7.97151L23.0953 7.97572C23.1392 7.97933 23.1837 7.98294 23.2283 7.98535L23.28 7.98836C23.3402 7.98836 23.3967 7.99317 23.4557 7.99317C23.5255 7.99317 23.5941 7.99317 23.6627 7.98716L23.7276 7.98234C23.7746 7.97873 23.8209 7.97572 23.8672 7.97091L23.9424 7.96129C23.9845 7.95587 24.0273 7.95045 24.0694 7.94384L24.1452 7.93C24.1861 7.92278 24.2276 7.91496 24.2655 7.90653L24.3395 7.88908C24.3804 7.87946 24.4214 7.86983 24.4599 7.8584C24.4833 7.85238 24.5062 7.84576 24.5297 7.83854C24.5712 7.82651 24.6127 7.81388 24.6536 7.80064L24.7174 7.77898C24.7601 7.76394 24.8022 7.74829 24.8443 7.73205L24.9003 7.70979C24.9454 7.69174 24.9899 7.67248 25.0339 7.65263L25.079 7.63217C25.1277 7.60931 25.1758 7.58584 25.2234 7.56058L25.2529 7.54613C25.3082 7.51605 25.3636 7.48597 25.4177 7.45288H25.4213C25.7686 7.24872 26.082 6.99174 26.3503 6.69117C26.9716 5.98833 27.314 5.08236 27.313 4.14431Z" fill="#FFFCFC"/>
<path d="M20.4194 8.37222L14.0682 13.3119C13.8992 13.4432 13.6913 13.5145 13.4773 13.5145C13.2633 13.5145 13.0554 13.4432 12.8865 13.3119L4.22249 6.57324C4.1207 6.49636 4.0352 6.40003 3.97096 6.28983C3.90672 6.17962 3.86502 6.05775 3.84829 5.93129C3.83156 5.80484 3.84012 5.67632 3.87349 5.5532C3.90686 5.43008 3.96436 5.31482 4.04266 5.21412C4.12095 5.11342 4.21848 5.02928 4.32958 4.9666C4.44067 4.90392 4.56312 4.86394 4.6898 4.84898C4.81648 4.83403 4.94487 4.84441 5.0675 4.8795C5.19014 4.9146 5.30458 4.97372 5.40417 5.05343L13.4773 11.3324L19.1462 6.92341C18.5977 6.03604 18.3001 5.01653 18.2852 3.97343C18.2703 2.93033 18.5385 1.90271 19.0614 1H3.36933C2.47602 1.00096 1.61958 1.35624 0.98791 1.98791C0.356245 2.61958 0.000955582 3.47602 0 4.36933V18.8093C0.000955582 19.7026 0.356245 20.5591 0.98791 21.1907C1.61958 21.8224 2.47602 22.1777 3.36933 22.1787H23.5853C24.4786 22.1777 25.3351 21.8224 25.9667 21.1907C26.5984 20.5591 26.9537 19.7026 26.9547 18.8093V8.89326C25.9413 9.48026 24.7732 9.74481 23.6058 9.65174C22.4383 9.55866 21.3269 9.11237 20.4194 8.37222Z" fill="#FFFCFC"/>
</svg>
