<svg width="70" height="69" viewBox="0 0 70 69" fill="none" xmlns="http://www.w3.org/2000/svg">
<path d="M62 34.5C62 19.3122 49.6878 7 34.5 7C19.3122 7 7 19.3122 7 34.5C7 49.6878 19.3122 62 34.5 62C49.6878 62 62 49.6878 62 34.5Z" fill="#097E77" stroke="#097E77"/>
<path d="M66.4187 34.4559C66.4187 52.0387 52.1392 66.3001 34.5152 66.3001C16.8911 66.3001 2.61168 52.0387 2.61168 34.4559C2.61168 16.8731 16.8911 2.61168 34.5152 2.61168C52.1392 2.61168 66.4187 16.8731 66.4187 34.4559Z" stroke="#097E77" stroke-width="5.22337"/>
<path d="M26.6272 44.7772L19.9258 36.4746V50.4704C21.1316 50.4507 23.4233 50.4704 24.6108 50.4704C25.9748 50.4704 26.6272 49.5216 26.6272 48.0982V44.7772Z" fill="white"/>
<path d="M48.985 50.4704V36.4746L42.2242 44.7772C42.2045 45.0342 42.1768 46.0582 42.2242 48.0982C42.2717 50.1383 43.7464 50.5297 44.4778 50.4704H48.985Z" fill="white"/>
<path d="M19.9258 19.1577V28.3499L33.2693 45.1331C34.3368 46.2598 34.9298 45.8447 35.5228 45.1331L48.9256 28.3499V19.1577C48.2733 17.7937 47.2058 18.2681 46.6128 19.0984L35.5228 32.7977C34.574 33.8652 33.9809 33.5687 33.3286 32.7977L22.12 18.9205C20.9814 17.5921 20.1828 18.6042 19.9258 19.1577Z" fill="white"/>
<path d="M30.3888 18.9161C30.0357 18.4781 30.0389 17.8522 30.3966 17.4178L33.5422 13.5972C34.0202 13.0167 34.9109 13.0218 35.3821 13.6078L38.4369 17.4065C38.821 17.8841 38.8209 18.5645 38.4368 19.042L35.3908 22.8282C34.9163 23.4179 34.0183 23.4184 33.5432 22.8291L30.3888 18.9161Z" fill="#FFFEFF"/>
<path d="M35.6549 18.2243C35.6549 18.8794 35.1239 19.4104 34.4688 19.4104C33.8138 19.4104 33.2827 18.8794 33.2827 18.2243C33.2827 17.5692 33.8138 17.0382 34.4688 17.0382C35.1239 17.0382 35.6549 17.5692 35.6549 18.2243Z" fill="#097E77"/>
</svg>
