<svg width="233" height="79" viewBox="0 0 233 79" fill="none" xmlns="http://www.w3.org/2000/svg">
<path d="M0.609558 77.3359V1.89228H50.7366V14.0443H14.3818V33.3862H48.7112V45.5382H14.3818V65.1839H50.7366V77.3359H0.609558ZM60.8355 77.3359V1.89228H74.0002L102.254 40.2723H95.9751L123.621 1.89228H136.786V77.3359H122.912V17.5886L128.279 18.9051L99.6206 57.0826H98.0004L70.0508 18.9051L74.6078 17.5886V77.3359H60.8355ZM151.224 77.3359V1.89228H164.996V77.3359H151.224ZM206.444 78.5511C201.651 78.5511 197.195 77.6735 193.077 75.9182C189.026 74.1629 185.516 71.7325 182.545 68.627C179.642 65.454 177.516 61.7746 176.166 57.5889L187.609 52.6269C189.432 56.9476 192.064 60.3569 195.508 62.8548C198.951 65.2852 202.832 66.5004 207.153 66.5004C209.584 66.5004 211.676 66.1291 213.432 65.3865C215.255 64.5763 216.638 63.4962 217.584 62.1459C218.596 60.7957 219.103 59.1755 219.103 57.2851C219.103 55.0573 218.428 53.2345 217.077 51.8167C215.795 50.3315 213.837 49.1838 211.204 48.3737L196.723 43.7154C190.849 41.8926 186.427 39.1584 183.457 35.5128C180.486 31.8672 179.001 27.5803 179.001 22.6519C179.001 18.3312 180.047 14.5169 182.14 11.2088C184.301 7.90077 187.271 5.33535 191.052 3.51255C194.9 1.62224 199.288 0.677083 204.216 0.677083C208.74 0.677083 212.892 1.48722 216.672 3.10748C220.453 4.66024 223.693 6.85435 226.394 9.68981C229.162 12.4578 231.221 15.7321 232.571 19.5127L221.229 24.576C219.744 20.7954 217.516 17.8924 214.546 15.8671C211.575 13.7742 208.132 12.7278 204.216 12.7278C201.921 12.7278 199.896 13.1329 198.14 13.943C196.385 14.6856 195.001 15.7658 193.989 17.1835C193.043 18.5338 192.571 20.154 192.571 22.0443C192.571 24.1372 193.246 25.9937 194.596 27.614C195.946 29.1668 198.005 30.382 200.773 31.2596L214.647 35.6141C220.655 37.5719 225.145 40.2723 228.115 43.7154C231.153 47.1585 232.672 51.4117 232.672 56.475C232.672 60.7957 231.558 64.6101 229.331 67.9181C227.103 71.2262 224.031 73.8254 220.115 75.7157C216.2 77.606 211.643 78.5511 206.444 78.5511Z" fill="white" fill-opacity="0.9"/>
</svg>
