<svg width="165" height="148" viewBox="0 0 165 148" fill="none" xmlns="http://www.w3.org/2000/svg">
<path fill-rule="evenodd" clip-rule="evenodd" d="M50.3625 11.5793V0H61.1361L53.1078 10.4415C53.0172 10.5619 52.9069 10.6957 52.7819 10.8319C52.9092 10.9474 53.0373 11.0774 53.1663 11.2235L65.2112 26.6872C65.9058 27.7105 67.064 27.7105 67.8749 26.6872L79.9197 11.2235C79.9737 11.1529 80.0364 11.078 80.1069 11.001C79.9193 10.8479 79.7275 10.6632 79.5344 10.4415L71.5061 0H82.2623H82.2801H93.0299L85.0061 10.4415C84.9077 10.5725 84.7855 10.7193 84.6473 10.8679C84.7713 10.9825 84.8972 11.1115 85.0235 11.2562L96.9118 26.703C97.5978 27.7253 98.7409 27.7253 99.5412 26.703L111.43 11.2562C111.529 11.1247 111.652 10.9771 111.791 10.8279C111.668 10.7137 111.543 10.5854 111.418 10.4415L103.394 0H114.162V10.1079L114.173 10.1204V21.7055L99.5412 40.4462C98.7409 41.3548 97.8266 41.582 96.9118 40.4462L82.4773 21.9581L67.8749 40.4453C67.064 41.355 66.1378 41.5823 65.2112 40.4453L50.3868 21.6842V11.6055L50.3781 11.5964C50.3726 11.5908 50.3676 11.5851 50.3625 11.5793ZM67.6036 10.6596C67.3757 8.95304 65.3251 8.95291 65.0972 10.6592C65.11 12.4642 67.4901 12.3467 67.6036 10.7582L69.0057 10.6596H67.6036ZM61.7928 10.6596H61.8006C61.7694 10.8596 61.8216 11.1953 62.1813 11.5546L65.3713 15.6507C65.941 16.2195 66.6247 16.3333 67.3084 15.6507L70.4984 11.5546C70.8402 10.9857 70.8402 10.8037 70.8402 10.5306L70.8325 10.5312C70.864 10.3312 70.8119 9.99519 70.4517 9.63557L67.2617 5.53953C66.692 4.97066 66.0083 4.85686 65.3251 5.53957L62.1346 9.63557C61.7928 10.2044 61.7928 10.3865 61.7928 10.6596ZM65.2876 75.5487C65.5155 73.842 67.566 73.842 67.7939 75.5487H70.9839C71.0599 75.3971 71.0979 74.98 70.6421 74.5246L67.4521 70.4289C66.8823 69.8601 66.1991 69.7462 65.5155 70.4289L62.3255 74.5246C61.9836 75.0938 61.9836 75.2755 61.9836 75.5487H65.2876ZM63.5111 94.6635C63.054 95.3461 63.1684 96.2564 63.3967 96.598C64.2291 97.8398 67.3226 101.718 68.6565 103.311C69.0377 103.652 70.0284 104.13 70.9432 103.311L76.0881 97.0529C76.3929 96.6736 76.8199 95.6877 76.0881 94.7774C75.3564 93.867 72.5055 90.4539 71.1716 88.861C70.6952 88.2918 69.7996 87.4953 68.6565 88.5195L63.5111 94.6635ZM69.914 97.8494C71.0507 97.8494 71.9719 96.9832 71.9719 95.9149C71.9719 94.847 71.0507 93.9809 69.914 93.9809C68.7773 93.9809 67.8562 94.847 67.8562 95.9149C67.8562 96.9832 68.7773 97.8494 69.914 97.8494ZM0.114348 98.7214V114.207L0 145.633C-2.28806e-06 147.239 0.707638 147.234 1.64768 147.228C1.7074 147.227 1.76805 147.227 1.82953 147.227H36.5912C38.0548 147.227 38.2682 145.861 38.192 145.177V139.826C38.192 138.186 36.8198 137.928 36.1337 138.004H14.5221C12.8755 138.278 12.6925 136.904 12.8069 136.182V126.959C12.6239 125.502 14.1028 125.289 14.8651 125.366H33.1608H35.219C36.4768 125.366 36.4768 124.113 36.4768 122.747V118.078C36.4768 116.598 35.5621 116.143 34.4185 116.143H24.356H14.8651C12.5395 116.248 12.5593 114.504 12.5756 113.071C12.5769 112.954 12.5782 112.838 12.5782 112.727V107.944C12.6696 105.485 14.0266 105.022 14.7508 104.984H35.219C37.2773 104.984 37.4297 103.314 37.3916 101.91V98.3799C37.506 96.3302 36.4768 95.8748 34.9903 95.8748H2.62999C0.114348 95.8748 0.114348 97.1276 0.114348 98.7214ZM46.4756 96.9928V112.071C48.7527 114.829 51.8617 118.584 55.0329 122.415L55.0339 122.416C61.4143 130.123 68.0451 138.133 68.6565 138.923C69.5708 140.107 70.7908 139.416 71.286 138.923L92.8953 112.071L92.7809 96.9391C91.2946 95.46 90.2659 96.5219 89.6939 97.2806L71.8575 119.24C70.3941 120.787 68.7325 119.885 68.0845 119.24L49.5626 96.9391C48.4191 95.46 47.0471 95.9149 46.4756 96.9928ZM93.1241 125.042L82.2623 138.468V144.612C82.1858 145.484 82.605 147.229 84.8922 147.229H93.1241V125.042ZM46.4756 125.27L57.2231 138.468V144.385C57.2231 145.333 56.7197 147.229 54.7076 147.229H46.4756V125.27ZM104.317 98.0384C104.317 97.1271 104.386 95.8748 106.039 95.8748H115.335C115.909 95.9509 116.941 96.3302 116.941 97.6968C116.941 97.7178 116.941 97.782 116.941 97.8863L116.941 97.9751L116.937 98.6408V98.6418C116.909 104.053 116.769 131.183 116.941 145.517C116.941 146.048 116.643 147.157 115.45 147.339H105.809C105.312 147.263 104.317 146.724 104.317 145.176V98.0384ZM125.765 106.808C128.052 92.3561 150.287 92.7441 162.636 99.0029L162.522 106.604C162.038 108.414 160.951 108.04 158.683 107.263C158.271 107.121 157.819 106.966 157.325 106.808C145.341 102.985 140.287 105.215 139.258 106.808C136.857 111.701 142.498 113.674 146.348 114.888C164.901 119.807 164.752 127.473 164.656 132.447C164.649 132.791 164.643 133.121 164.643 133.436C163.322 152.35 134.85 149.733 126.451 142.905V135.826C126.451 132.635 128.62 133.712 130.911 134.916C143.083 141.312 151.188 137.647 151.607 134.574C151.607 130.596 149.279 129.781 142.375 127.366C142.014 127.24 141.64 127.109 141.253 126.973C125.611 122.149 124.736 114.888 125.765 106.808ZM50.3625 63.8804L64.9453 45.1423C65.7424 44.234 66.654 44.0068 67.5656 45.1423L82.1479 63.8804L82.1643 64.1245L82.1694 63.9164L97.0637 45.1423C97.8673 44.234 98.7853 44.0068 99.7032 45.1423L114.39 63.8804V75.464C113.97 75.653 112.83 75.6908 111.636 74.3283L99.7032 58.8835C99.0145 57.8616 97.8673 57.8616 97.0637 58.8835L85.1306 74.3283C84.7128 74.8793 83.804 75.6512 82.8915 75.7965C82.3789 75.9422 80.5517 75.6371 79.4136 74.3283L67.5656 58.8835C66.8819 57.8616 65.7424 57.8616 64.9453 58.8835L53.0968 74.3283C52.5275 75.0852 51.183 76.3725 50.3625 75.464V63.8804ZM50.2486 30.4926V54.1584L57.6541 45.17V40.05L50.2486 30.4926ZM99.7554 75.5487C99.5266 73.842 97.4687 73.842 97.2399 75.5487H93.9245C93.9245 75.2755 93.9245 75.0938 94.2673 74.5246L97.4687 70.4289C98.1547 69.7462 98.8406 69.8601 99.4127 70.4289L102.614 74.5246C103.071 74.98 103.033 75.3971 102.957 75.5487H99.7554ZM97.0491 10.6592C97.2779 8.95291 99.3358 8.953 99.5641 10.6596H100.971L99.5641 10.7582C99.4502 12.3467 97.0619 12.4642 97.0491 10.6592ZM93.741 10.6596C93.7094 10.8596 93.7616 11.1953 94.1227 11.5546L97.3241 15.6507C97.8957 16.2195 98.5816 16.3333 99.2676 15.6507L102.469 11.5546C102.812 10.9857 102.812 10.8037 102.812 10.5306L102.804 10.5312C102.836 10.3312 102.784 9.99519 102.423 9.63557L99.2214 5.53953C98.6494 4.97066 97.9634 4.85686 97.2774 5.53957L94.076 9.63557C93.7332 10.2044 93.7332 10.3865 93.7332 10.6596H93.741ZM114.619 30.4926V54.1584L107.187 44.6011V39.4811L114.619 30.4926ZM82.3355 30.1951L74.8604 39.1765V44.3008L82.3355 54.1088L89.6994 44.3008V39.1765L82.3355 30.1951Z" fill="white" fill-opacity="0.9"/>
</svg>
