<svg width="220" height="197" viewBox="0 0 220 197" fill="none" xmlns="http://www.w3.org/2000/svg">
<g clip-path="url(#clip0_121_255)">
<path fill-rule="evenodd" clip-rule="evenodd" d="M67.2305 15.9204V0.602051H81.483L70.8622 14.4152C70.7423 14.5745 70.5964 14.7514 70.4311 14.9316C70.5994 15.0844 70.769 15.2564 70.9397 15.4497L86.8739 35.9067C87.7928 37.2605 89.325 37.2605 90.3978 35.9067L106.332 15.4497C106.403 15.3563 106.486 15.2572 106.58 15.1554C106.331 14.9529 106.078 14.7085 105.822 14.4152L95.2015 0.602051H109.431H109.455H123.675L113.061 14.4152C112.931 14.5885 112.769 14.7827 112.586 14.9793C112.75 15.1309 112.917 15.3015 113.084 15.493L128.811 35.9277C129.718 37.28 131.231 37.28 132.289 35.9277L148.017 15.493C148.148 15.319 148.31 15.1238 148.495 14.9264C148.331 14.7753 148.167 14.6056 148.001 14.4152L137.386 0.602051H151.631V13.9739L151.646 13.9904V29.3165L132.289 54.1086C131.231 55.3107 130.021 55.6112 128.811 54.1086L109.715 29.6506L90.3978 54.1075C89.325 55.3109 88.0998 55.6117 86.8739 54.1075L67.2626 29.2883V15.955L67.2511 15.943C67.2438 15.9356 67.2372 15.928 67.2305 15.9204ZM90.0388 14.7037C89.7373 12.4461 87.0246 12.4459 86.7231 14.7032C86.7401 17.091 89.8886 16.9357 90.0388 14.8341L91.8937 14.7037H90.0388ZM82.3517 14.7037H82.362C82.3208 14.9684 82.3898 15.4124 82.8656 15.8877L87.0857 21.3064C87.8394 22.059 88.7439 22.2095 89.6483 21.3064L93.8684 15.8877C94.3206 15.1352 94.3206 14.8943 94.3206 14.5331L94.3103 14.5338C94.3521 14.2692 94.2831 13.8248 93.8067 13.349L89.5866 7.93034C88.8329 7.17778 87.9284 7.02723 87.0246 7.9304L82.8039 13.349C82.3517 14.1016 82.3517 14.3424 82.3517 14.7037ZM86.975 100.546C87.2764 98.2882 89.9891 98.2882 90.2906 100.546H94.5107C94.6112 100.346 94.6615 99.7937 94.0585 99.1913L89.8384 93.773C89.0847 93.0206 88.1809 92.8699 87.2764 93.773L83.0563 99.1913C82.6041 99.9443 82.6041 100.185 82.6041 100.546H86.975ZM84.6249 125.833C84.0201 126.736 84.1714 127.941 84.4735 128.392C85.5747 130.035 89.6671 135.165 91.4318 137.273C91.936 137.724 93.2467 138.357 94.4568 137.273L101.263 128.994C101.666 128.492 102.231 127.188 101.263 125.984C100.295 124.78 96.5236 120.264 94.7589 118.157C94.1287 117.404 92.944 116.35 91.4318 117.705L84.6249 125.833ZM93.0953 130.048C94.5991 130.048 95.8177 128.902 95.8177 127.489C95.8177 126.076 94.5991 124.93 93.0953 124.93C91.5916 124.93 90.373 126.076 90.373 127.489C90.373 128.902 91.5916 130.048 93.0953 130.048ZM0.756741 131.201V151.687L0.605469 193.261C0.605466 195.386 1.54161 195.379 2.7852 195.371C2.86421 195.37 2.94444 195.37 3.02577 195.37H49.0122C50.9485 195.37 51.2308 193.562 51.13 192.659V185.579C51.13 183.41 49.3147 183.068 48.4071 183.169H19.8169C17.6385 183.531 17.3965 181.713 17.5478 180.759V168.558C17.3058 166.63 19.2622 166.349 20.2707 166.449H44.4741H47.197C48.8609 166.449 48.8609 164.792 48.8609 162.985V156.808C48.8609 154.851 47.6508 154.248 46.1381 154.248H32.8262H20.2707C17.1941 154.387 17.2202 152.081 17.2418 150.184C17.2435 150.029 17.2452 149.877 17.2452 149.729V143.403C17.3662 140.149 19.1614 139.536 20.1195 139.486H47.197C49.9199 139.486 50.1215 137.277 50.0711 135.419V130.75C50.2224 128.038 48.861 127.436 46.8944 127.436H4.08471C0.756741 127.436 0.756741 129.093 0.756741 131.201ZM62.0884 128.915V148.862C65.1008 152.51 69.2137 157.478 73.409 162.545L73.4102 162.547C81.851 172.743 90.623 183.339 91.4318 184.385C92.6413 185.951 94.2552 185.037 94.9103 184.385L123.497 148.862L123.346 128.844C121.38 126.887 120.019 128.292 119.262 129.295L95.6664 158.345C93.7304 160.392 91.5322 159.198 90.675 158.345L66.1723 128.844C64.6595 126.887 62.8445 127.489 62.0884 128.915ZM123.8 166.021L109.431 183.783V191.911C109.33 193.065 109.884 195.373 112.91 195.373H123.8V166.021ZM62.0884 166.323L76.3064 183.783V191.61C76.3064 192.864 75.6404 195.373 72.9786 195.373H62.0884V166.323ZM138.608 130.298C138.608 129.092 138.699 127.436 140.885 127.436H153.183C153.942 127.536 155.308 128.038 155.308 129.846C155.308 129.874 155.308 129.959 155.308 130.097L155.307 130.214L155.302 131.095V131.096C155.265 138.255 155.08 174.145 155.308 193.108C155.308 193.81 154.914 195.277 153.335 195.518H140.581C139.923 195.417 138.608 194.704 138.608 192.656V130.298ZM166.981 141.899C170.007 122.781 199.421 123.294 215.758 131.574L215.607 141.63C214.967 144.024 213.528 143.53 210.529 142.501C209.983 142.313 209.386 142.109 208.732 141.899C192.879 136.841 186.192 139.792 184.831 141.899C181.654 148.373 189.117 150.982 194.21 152.588C218.755 159.095 218.558 169.237 218.43 175.818C218.422 176.272 218.413 176.709 218.413 177.126C216.665 202.147 178.999 198.685 167.889 189.652V180.288C167.889 176.066 170.758 177.491 173.789 179.083C189.891 187.545 200.614 182.696 201.168 178.632C201.168 173.368 198.088 172.29 188.955 169.096C188.477 168.929 187.982 168.756 187.47 168.576C166.777 162.194 165.62 152.588 166.981 141.899ZM67.2305 85.11L86.5221 60.3211C87.5767 59.1195 88.7826 58.819 89.9885 60.3211L109.28 85.11L109.301 85.4329L109.308 85.1576L129.012 60.3211C130.075 59.1195 131.289 58.819 132.504 60.3211L151.933 85.11V100.434C151.377 100.684 149.869 100.734 148.29 98.9316L132.504 78.4995C131.593 77.1477 130.075 77.1477 129.012 78.4995L113.225 98.9316C112.673 99.6606 111.47 100.682 110.263 100.874C109.585 101.067 107.168 100.663 105.662 98.9316L89.9885 78.4995C89.0841 77.1477 87.5767 77.1477 86.5221 78.4995L70.8476 98.9316C70.0946 99.9329 68.3159 101.636 67.2305 100.434V85.11ZM67.0798 40.941V72.2487L76.8766 60.3579V53.5845L67.0798 40.941ZM132.573 100.546C132.27 98.2882 129.548 98.2882 129.245 100.546H124.859C124.859 100.185 124.859 99.9443 125.312 99.1913L129.548 93.773C130.455 92.8699 131.363 93.0206 132.119 93.773L136.354 99.1913C136.959 99.7937 136.909 100.346 136.808 100.546H132.573ZM128.993 14.7032C129.295 12.4459 132.018 12.446 132.32 14.7037H134.181L132.32 14.8341C132.169 16.9356 129.009 17.091 128.993 14.7032ZM124.616 14.7037C124.574 14.9684 124.643 15.4124 125.121 15.8877L129.356 21.3064C130.112 22.059 131.02 22.2095 131.927 21.3064L136.163 15.8877C136.617 15.1352 136.617 14.8943 136.617 14.5331L136.606 14.5338C136.648 14.2692 136.579 13.8248 136.102 13.349L131.866 7.93034C131.11 7.17778 130.202 7.02723 129.295 7.9304L125.059 13.349C124.606 14.1016 124.606 14.3424 124.606 14.7037H124.616ZM152.236 40.941V72.2487L142.404 59.6052V52.8319L152.236 40.941ZM109.528 40.5474L99.6389 52.4289V59.208L109.528 72.183L119.27 59.208V52.4289L109.528 40.5474Z" fill="white" fill-opacity="0.9"/>
<path d="M67.2305 0.602486V0.30127H66.9278V0.602486H67.2305ZM67.2305 15.9208H66.9278V16.0364L67.0053 16.1224L67.2305 15.9208ZM81.4829 0.602486L81.7233 0.785523L82.0956 0.30127H81.4829V0.602486ZM70.8621 14.4157L70.6218 14.2326L70.6206 14.2349L70.8621 14.4157ZM70.4311 14.9321L70.2077 14.7291L70.0037 14.9514L70.2271 15.1544L70.4311 14.9321ZM70.9396 15.4501L71.1788 15.2656L71.1733 15.2583L71.1673 15.2513L70.9396 15.4501ZM86.8738 35.9072L87.1245 35.7386L87.119 35.7304L87.1129 35.7227L86.8738 35.9072ZM90.3977 35.9072L90.6357 36.0937L90.6369 36.0917L90.3977 35.9072ZM106.332 15.4501L106.571 15.6347L106.573 15.6324L106.332 15.4501ZM106.58 15.1559L106.804 15.3586L107.018 15.1241L106.771 14.9229L106.58 15.1559ZM105.822 14.4157L105.582 14.5987L105.587 14.606L105.593 14.613L105.822 14.4157ZM95.2014 0.602486V0.30127H94.5888L94.9611 0.785523L95.2014 0.602486ZM123.675 0.602486L123.916 0.785456L124.288 0.30127H123.675V0.602486ZM113.061 14.4157L112.82 14.2327L112.819 14.2349L113.061 14.4157ZM112.586 14.9797L112.364 14.7749L112.158 14.9959L112.38 15.2006L112.586 14.9797ZM113.084 15.4934L113.324 15.3103L113.319 15.303L113.313 15.296L113.084 15.4934ZM128.811 35.9281L129.063 35.7609L129.057 35.7528L129.051 35.745L128.811 35.9281ZM132.289 35.9281L132.528 36.1133L132.53 36.1113L132.289 35.9281ZM148.017 15.4934L148.257 15.6766L148.259 15.6743L148.017 15.4934ZM148.495 14.9268L148.716 15.1319L148.922 14.9113L148.701 14.7063L148.495 14.9268ZM148.001 14.4157L147.76 14.5987L147.766 14.606L147.772 14.6129L148.001 14.4157ZM137.386 0.602486V0.30127H136.773L137.146 0.785462L137.386 0.602486ZM151.631 0.602486H151.933V0.30127H151.631V0.602486ZM151.631 13.9744H151.328V14.0913L151.407 14.1776L151.631 13.9744ZM151.646 13.9909H151.948V13.8739L151.869 13.7876L151.646 13.9909ZM151.646 29.3169L151.885 29.5018L151.948 29.4202V29.3169H151.646ZM132.289 54.1091L132.517 54.3076L132.523 54.3009L132.529 54.2939L132.289 54.1091ZM128.811 54.1091L128.572 54.2939L128.575 54.2974L128.811 54.1091ZM109.715 29.651L109.954 29.4662L109.717 29.1619L109.477 29.4649L109.715 29.651ZM90.3977 54.108L90.6241 54.3078L90.6302 54.3011L90.6357 54.2941L90.3977 54.108ZM86.8738 54.108L86.6359 54.2942L86.6389 54.2977L86.8738 54.108ZM67.2626 29.2887H66.9599V29.393L67.0246 29.4749L67.2626 29.2887ZM67.2626 15.9555H67.5652V15.8356L67.4823 15.7485L67.2626 15.9555ZM67.251 15.9434L67.0301 16.1493L67.0313 16.1505L67.251 15.9434ZM86.7231 14.7036L86.4228 14.6639L86.4204 14.6847V14.7057L86.7231 14.7036ZM90.0387 14.7042L89.7385 14.7438L89.7736 15.0054H90.0387V14.7042ZM90.0387 14.8346L90.0176 14.5341L89.7554 14.5525L89.7367 14.8132L90.0387 14.8346ZM91.8936 14.7042L91.9154 15.0046L91.8936 14.4029V14.7042ZM82.3619 14.7042L82.661 14.7506L82.7161 14.4029H82.3619V14.7042ZM82.3516 14.7042H82.049V15.0054H82.3516V14.7042ZM82.8656 15.8882L83.1047 15.7037L83.0932 15.6888L83.0799 15.6756L82.8656 15.8882ZM87.0857 21.3069L86.8466 21.4914L86.8581 21.5062L86.8714 21.5195L87.0857 21.3069ZM89.6483 21.3069L89.8626 21.5195L89.8759 21.5062L89.8874 21.4914L89.6483 21.3069ZM93.8684 15.8882L94.1075 16.0727L94.1184 16.0584L94.1281 16.0428L93.8684 15.8882ZM94.3206 14.5335H94.6233V14.2103L94.2988 14.2331L94.3206 14.5335ZM94.3103 14.5343L94.0112 14.4875L93.9519 14.8614L94.3315 14.8347L94.3103 14.5343ZM93.8066 13.3495L93.5675 13.534L93.579 13.5488L93.5923 13.5621L93.8066 13.3495ZM89.5865 7.93077L89.8257 7.74631L89.8141 7.73149L89.8008 7.71817L89.5865 7.93077ZM87.0246 7.93083L86.8097 7.71817L86.7963 7.73149L86.7848 7.74631L87.0246 7.93083ZM82.8039 13.3495L82.5647 13.1649L82.5538 13.1793L82.5441 13.1949L82.8039 13.3495ZM90.2906 100.547L89.9909 100.586L90.0254 100.848H90.2906V100.547ZM86.9749 100.547V100.848H87.2401L87.2746 100.586L86.9749 100.547ZM94.5107 100.547V100.848H94.6983L94.7819 100.681L94.5107 100.547ZM94.0585 99.1917L93.8193 99.3767L93.8308 99.3911L93.8442 99.4044L94.0585 99.1917ZM89.8384 93.7734L90.0775 93.5891L90.066 93.574L90.0527 93.5608L89.8384 93.7734ZM87.2764 93.7734L87.0621 93.5608L87.0488 93.574L87.0373 93.5891L87.2764 93.7734ZM83.0563 99.1917L82.8166 99.0074L82.8057 99.0218L82.796 99.0375L83.0563 99.1917ZM82.6041 100.547H82.3014V100.848H82.6041V100.547ZM84.6248 125.834L84.3924 125.641L84.3821 125.654L84.373 125.667L84.6248 125.834ZM91.4317 137.273L91.1993 137.466L91.2132 137.482L91.2289 137.497L91.4317 137.273ZM94.4568 137.273L94.659 137.497L94.6766 137.482L94.6911 137.464L94.4568 137.273ZM101.263 128.995L101.497 129.186L101.499 129.183L101.263 128.995ZM91.4317 117.706L91.2289 117.482L91.2132 117.496L91.1993 117.513L91.4317 117.706ZM0.756696 151.688L1.05939 151.689V151.688H0.756696ZM0.605424 193.261L0.302734 193.26V193.261H0.605424ZM51.13 192.659H50.8273V192.676L50.8291 192.692L51.13 192.659ZM48.407 183.17V183.471H48.4239L48.4405 183.469L48.407 183.17ZM19.8168 183.17V182.868H19.7918L19.767 182.872L19.8168 183.17ZM17.5478 180.759L17.8468 180.806L17.8504 180.783V180.759H17.5478ZM17.5478 168.558H17.8504V168.539L17.8481 168.521L17.5478 168.558ZM20.2706 166.45L20.2405 166.749L20.2556 166.751H20.2706V166.45ZM20.2706 154.249V153.947H20.2638H20.2569L20.2706 154.249ZM17.2452 143.403L16.9427 143.392L16.9425 143.398V143.403H17.2452ZM20.1194 139.487V139.185H20.1115L20.1035 139.186L20.1194 139.487ZM50.071 135.42H49.7682L49.7685 135.428L50.071 135.42ZM50.071 130.75L49.7688 130.733L49.7684 130.742V130.75H50.071ZM62.0884 148.863H61.7857V148.971L61.8541 149.054L62.0884 148.863ZM62.0884 128.915L61.8202 128.775L61.7857 128.84V128.915H62.0884ZM73.409 162.546L73.6433 162.356L73.6426 162.354L73.409 162.546ZM73.4102 162.548L73.1759 162.739L73.1765 162.739L73.4102 162.548ZM94.9102 184.385L95.1245 184.599L95.136 184.586L95.1463 184.574L94.9102 184.385ZM123.497 148.863L123.734 149.051L123.801 148.968L123.8 148.861L123.497 148.863ZM123.346 128.844L123.649 128.842L123.648 128.718L123.56 128.631L123.346 128.844ZM119.262 129.296L119.498 129.485L119.501 129.481L119.504 129.477L119.262 129.296ZM95.6664 158.346L95.8873 158.552L95.8946 158.544L95.9018 158.535L95.6664 158.346ZM90.675 158.346L90.4419 158.537L90.451 158.549L90.4613 158.558L90.675 158.346ZM66.1723 128.844L65.9319 129.028L65.9356 129.032L65.9386 129.036L66.1723 128.844ZM109.431 183.783L109.195 183.594L109.128 183.677V183.783H109.431ZM123.8 166.022H124.103V165.168L123.564 165.833L123.8 166.022ZM109.431 191.911L109.732 191.937L109.734 191.924V191.911H109.431ZM123.8 195.373V195.674H124.103V195.373H123.8ZM76.3063 183.783H76.609V183.677L76.5412 183.594L76.3063 183.783ZM62.0884 166.323L62.3233 166.133L61.7857 165.473V166.323H62.0884ZM62.0884 195.373H61.7857V195.674H62.0884V195.373ZM153.183 127.436L153.223 127.137L153.203 127.135H153.183V127.436ZM155.302 131.095L155 131.094V131.095H155.302ZM155.302 131.097L155.605 131.098V131.097H155.302ZM155.308 193.108H155.611V193.105L155.308 193.108ZM153.335 195.518V195.819H153.358L153.381 195.816L153.335 195.518ZM140.581 195.518L140.535 195.816L140.558 195.819H140.581V195.518ZM215.758 131.574L216.061 131.578L216.064 131.391L215.895 131.306L215.758 131.574ZM166.981 141.9L166.682 141.853L166.682 141.858L166.681 141.862L166.981 141.9ZM215.607 141.63L215.899 141.707L215.909 141.672L215.909 141.634L215.607 141.63ZM184.831 141.9L184.577 141.737L184.567 141.752L184.559 141.768L184.831 141.9ZM194.21 152.588L194.119 152.876L194.125 152.878L194.132 152.88L194.21 152.588ZM218.413 177.127L218.715 177.148L218.716 177.137V177.127H218.413ZM167.889 189.652H167.586V189.795L167.697 189.885L167.889 189.652ZM201.168 178.632L201.468 178.672L201.471 178.653V178.632H201.168ZM187.47 168.577L187.571 168.292L187.566 168.291L187.56 168.289L187.47 168.577ZM86.5221 60.3216L86.2939 60.1237L86.2884 60.1304L86.2824 60.1374L86.5221 60.3216ZM67.2305 85.1105L66.9913 84.9261L66.9278 85.0074V85.1105H67.2305ZM89.9885 60.3216L90.2276 60.1374L90.2246 60.1339L89.9885 60.3216ZM109.28 85.1105L109.582 85.0906L109.576 84.9984L109.519 84.9261L109.28 85.1105ZM109.301 85.4334L108.999 85.4532L109.604 85.4406L109.301 85.4334ZM109.308 85.1581L109.07 84.9719L109.008 85.0508L109.005 85.1514L109.308 85.1581ZM129.012 60.3216L128.785 60.1228L128.779 60.1289L128.775 60.1352L129.012 60.3216ZM132.504 60.3216L132.742 60.1365L132.739 60.133L132.504 60.3216ZM151.933 85.1105H152.236V85.0068L152.172 84.9249L151.933 85.1105ZM151.933 100.435L152.058 100.709L152.236 100.629V100.435H151.933ZM148.29 98.9321L148.05 99.1158L148.056 99.123L148.062 99.1297L148.29 98.9321ZM132.504 78.5L132.252 78.6681L132.257 78.6759L132.263 78.6837L132.504 78.5ZM129.012 78.5L128.773 78.3144L128.772 78.3168L129.012 78.5ZM113.225 98.9321L112.985 98.7483L112.983 98.7507L113.225 98.9321ZM110.263 100.874L110.215 100.577L110.198 100.58L110.18 100.585L110.263 100.874ZM105.662 98.9321L105.422 99.1146L105.427 99.1218L105.434 99.1291L105.662 98.9321ZM89.9885 78.5L89.7367 78.6668L89.7421 78.6753L89.7476 78.6831L89.9885 78.5ZM86.5221 78.5L86.283 78.3156L86.2812 78.3174L86.5221 78.5ZM70.8476 98.9321L70.6073 98.7489L70.6055 98.7513L70.8476 98.9321ZM67.2305 100.435H66.9278V100.55L67.0059 100.636L67.2305 100.435ZM67.0797 72.2491H66.777V73.0919L67.3134 72.4401L67.0797 72.2491ZM67.0797 40.9414L67.3195 40.7575L66.777 40.0575V40.9414H67.0797ZM76.8766 60.3583L77.1103 60.5493L77.1793 60.4662V60.3583H76.8766ZM76.8766 53.5849H77.1793V53.4823L77.1163 53.401L76.8766 53.5849ZM129.245 100.547V100.848H129.51L129.545 100.586L129.245 100.547ZM132.573 100.547L132.273 100.586L132.308 100.848H132.573V100.547ZM124.859 100.547H124.556V100.848H124.859V100.547ZM125.312 99.1917L125.074 99.0068L125.062 99.0212L125.053 99.0369L125.312 99.1917ZM129.548 93.7734L129.334 93.5602L129.321 93.5734L129.309 93.5885L129.548 93.7734ZM132.119 93.7734L132.358 93.5885L132.346 93.5734L132.333 93.5602L132.119 93.7734ZM136.354 99.1917L136.115 99.3767L136.127 99.3917L136.14 99.405L136.354 99.1917ZM136.808 100.547V100.848H136.995L137.079 100.682L136.808 100.547ZM132.32 14.7042L132.02 14.7439L132.055 15.0054H132.32V14.7042ZM128.992 14.7037L128.692 14.6638L128.689 14.6847L128.69 14.7058L128.992 14.7037ZM134.181 14.7042L134.202 15.0046L134.181 14.4029V14.7042ZM132.32 14.8346L132.298 14.5341L132.036 14.5525L132.018 14.8131L132.32 14.8346ZM125.121 15.8882L125.36 15.7033L125.349 15.6885L125.335 15.6752L125.121 15.8882ZM124.616 14.7042L124.915 14.7508L124.97 14.4029H124.616V14.7042ZM129.356 21.3069L129.117 21.4918L129.129 21.5066L129.142 21.5198L129.356 21.3069ZM131.927 21.3069L132.142 21.5198L132.155 21.5066L132.167 21.4918L131.927 21.3069ZM136.163 15.8882L136.402 16.0731L136.413 16.0588L136.422 16.0432L136.163 15.8882ZM136.617 14.5335H136.919V14.2103L136.595 14.2331L136.617 14.5335ZM136.606 14.5343L136.307 14.4873L136.248 14.8613L136.628 14.8347L136.606 14.5343ZM136.101 13.3495L135.862 13.5344L135.874 13.5492L135.887 13.5624L136.101 13.3495ZM131.866 7.93077L132.105 7.74588L132.093 7.73107L132.08 7.71781L131.866 7.93077ZM129.295 7.93083L129.081 7.71781L129.068 7.73107L129.056 7.74588L129.295 7.93083ZM125.059 13.3495L124.821 13.1645L124.809 13.1789L124.8 13.1945L125.059 13.3495ZM124.606 14.7042H124.303V15.0054H124.606V14.7042ZM152.236 72.2491L151.996 72.4335L152.539 73.1305V72.2491H152.236ZM152.236 40.9414H152.539V40.1012L152.002 40.75L152.236 40.9414ZM142.404 59.6057H142.101V59.7086L142.165 59.79L142.404 59.6057ZM142.404 52.8323L142.17 52.641L142.101 52.7244V52.8323H142.404ZM99.6389 52.4294L99.4058 52.2372L99.3362 52.3208V52.4294H99.6389ZM109.528 40.5478L109.762 40.3574L109.53 40.0735L109.295 40.3557L109.528 40.5478ZM99.6389 59.2084H99.3362V59.3097L99.3979 59.3904L99.6389 59.2084ZM109.528 72.1835L109.286 72.3654L109.53 72.6841L109.77 72.3636L109.528 72.1835ZM119.27 59.2084L119.512 59.3887L119.572 59.3085V59.2084H119.27ZM119.27 52.4294H119.572V52.3221L119.504 52.2389L119.27 52.4294ZM66.9278 0.602486V15.9208H67.5332V0.602486H66.9278ZM81.4829 0.30127H67.2305V0.903702H81.4829V0.30127ZM71.1031 14.5987L81.7233 0.785523L81.2426 0.419446L70.6218 14.2326L71.1031 14.5987ZM70.6551 15.135C70.8264 14.9478 70.9784 14.7635 71.1043 14.5964L70.6206 14.2349C70.5062 14.3863 70.3663 14.5559 70.2077 14.7291L70.6551 15.135ZM71.1673 15.2513C70.9893 15.0501 70.8119 14.8702 70.6357 14.7098L70.2271 15.1544C70.3863 15.2994 70.5486 15.4635 70.712 15.6489L71.1673 15.2513ZM87.1129 35.7227L71.1788 15.2656L70.7005 15.6347L86.6347 36.0917L87.1129 35.7227ZM90.1598 35.7207C89.6658 36.3442 89.0956 36.6213 88.5786 36.6213C88.0652 36.6213 87.5391 36.3492 87.1245 35.7386L86.6232 36.0759C87.1275 36.819 87.8273 37.2237 88.5786 37.2237C89.325 37.2237 90.0569 36.8239 90.6357 36.0937L90.1598 35.7207ZM106.093 15.2656L90.1586 35.7227L90.6369 36.0917L106.571 15.6347L106.093 15.2656ZM106.356 14.9531C106.257 15.0606 106.168 15.1665 106.091 15.2679L106.573 15.6324C106.638 15.547 106.716 15.4547 106.804 15.3586L106.356 14.9531ZM105.593 14.613C105.86 14.9183 106.125 15.1747 106.388 15.3888L106.771 14.9229C106.538 14.7319 106.296 14.4996 106.051 14.2184L105.593 14.613ZM94.9611 0.785523L105.582 14.5987L106.063 14.2326L95.4418 0.419446L94.9611 0.785523ZM109.431 0.30127H95.2014V0.903702H109.431V0.30127ZM109.454 0.30127H109.431V0.903702H109.454V0.30127ZM123.675 0.30127H109.454V0.903702H123.675V0.30127ZM113.302 14.5987L123.916 0.785456L123.435 0.419512L112.82 14.2327L113.302 14.5987ZM112.808 15.1844C112.998 14.9803 113.166 14.7781 113.303 14.5964L112.819 14.2349C112.694 14.3998 112.54 14.586 112.364 14.7749L112.808 15.1844ZM113.313 15.296C113.138 15.0966 112.964 14.9182 112.792 14.7588L112.38 15.2006C112.536 15.3445 112.695 15.5073 112.855 15.6909L113.313 15.296ZM129.051 35.745L113.324 15.3103L112.843 15.6766L128.571 36.1113L129.051 35.745ZM132.05 35.7431C131.563 36.366 131.001 36.6412 130.493 36.6412C129.991 36.6412 129.472 36.3711 129.063 35.7609L128.559 36.0954C129.057 36.8375 129.749 37.2436 130.493 37.2436C131.234 37.2436 131.957 36.8426 132.528 36.1133L132.05 35.7431ZM147.776 15.3103L132.049 35.745L132.53 36.1113L148.257 15.6766L147.776 15.3103ZM148.273 14.7217C148.081 14.9268 147.912 15.1301 147.774 15.3125L148.259 15.6743C148.383 15.5088 148.539 15.3217 148.716 15.1319L148.273 14.7217ZM147.772 14.6129C147.945 14.8111 148.117 14.9886 148.288 15.1474L148.701 14.7063C148.546 14.5629 148.388 14.401 148.23 14.2184L147.772 14.6129ZM137.146 0.785462L147.76 14.5987L148.241 14.2327L137.626 0.419512L137.146 0.785462ZM151.631 0.30127H137.386V0.903702H151.631V0.30127ZM151.933 13.9744V0.602486H151.328V13.9744H151.933ZM151.869 13.7876L151.854 13.7712L151.407 14.1776L151.422 14.1941L151.869 13.7876ZM151.948 29.3169V13.9909H151.343V29.3169H151.948ZM132.529 54.2939L151.885 29.5018L151.407 29.1321L132.05 53.9242L132.529 54.2939ZM128.575 54.2974C129.215 55.0919 129.905 55.4701 130.626 55.4239C131.33 55.3787 131.966 54.9331 132.517 54.3076L132.062 53.9106C131.554 54.4871 131.056 54.7927 130.588 54.8227C130.136 54.8516 129.617 54.6288 129.048 53.9207L128.575 54.2974ZM109.476 29.8359L128.572 54.2939L129.05 53.9242L109.954 29.4662L109.476 29.8359ZM90.6357 54.2941L109.953 29.8372L109.477 29.4649L90.1598 53.9218L90.6357 54.2941ZM86.6389 54.2977C87.2867 55.0933 87.9853 55.47 88.7124 55.4239C89.4225 55.3789 90.066 54.9343 90.6241 54.3078L90.1713 53.9081C89.6568 54.485 89.1513 54.7925 88.6742 54.8227C88.2135 54.8519 87.6862 54.6269 87.1087 53.9183L86.6389 54.2977ZM67.0246 29.4749L86.6359 54.2942L87.1117 53.9218L67.5005 29.1025L67.0246 29.4749ZM66.9599 15.9555V29.2887H67.5652V15.9555H66.9599ZM67.0313 16.1505L67.0428 16.1625L67.4823 15.7485L67.4708 15.7364L67.0313 16.1505ZM67.0053 16.1224C67.0137 16.1315 67.0216 16.1405 67.0301 16.1493L67.472 15.7375C67.4666 15.7315 67.4605 15.7255 67.4551 15.7193L67.0053 16.1224ZM87.0227 14.7433C87.1565 13.7452 87.7976 13.3119 88.3812 13.312C88.9642 13.3121 89.6053 13.7455 89.7385 14.7438L90.339 14.6645C90.1707 13.4051 89.305 12.7097 88.3812 12.7096C87.4568 12.7094 86.5911 13.4047 86.4228 14.6639L87.0227 14.7433ZM89.7367 14.8132C89.6743 15.6863 89.0005 16.1488 88.3298 16.1514C87.995 16.1526 87.6741 16.0379 87.4374 15.8103C87.2038 15.5859 87.0294 15.2292 87.0258 14.7014L86.4204 14.7057C86.4252 15.3719 86.6504 15.8912 87.0167 16.2436C87.3799 16.5928 87.8588 16.7556 88.3322 16.7538C89.2772 16.7503 90.2531 16.0843 90.3408 14.856L89.7367 14.8132ZM91.8724 14.4037L90.0176 14.5341L90.0599 15.135L91.9154 15.0046L91.8724 14.4037ZM90.0387 15.0054H91.8936V14.4029H90.0387V15.0054ZM82.3619 14.4029H82.3516V15.0054H82.3619V14.4029ZM83.0799 15.6756C82.6646 15.261 82.6362 14.9108 82.661 14.7506L82.0629 14.6576C82.0054 15.0268 82.1143 15.5647 82.6513 16.1008L83.0799 15.6756ZM87.3248 21.1223L83.1047 15.7037L82.6265 16.0727L86.8466 21.4914L87.3248 21.1223ZM89.4334 21.0942C89.0235 21.5039 88.6494 21.641 88.3237 21.6268C87.9913 21.6124 87.6445 21.438 87.3 21.0942L86.8714 21.5195C87.2806 21.9283 87.7625 22.2055 88.2971 22.2287C88.8383 22.2521 89.368 22.013 89.8626 21.5195L89.4334 21.0942ZM93.6293 15.7037L89.4085 21.1223L89.8874 21.4914L94.1075 16.0727L93.6293 15.7037ZM94.0179 14.5335C94.0179 14.7133 94.0167 14.8267 93.9725 14.9824C93.9265 15.1447 93.829 15.3667 93.6087 15.7337L94.1281 16.0428C94.3599 15.6571 94.4883 15.3824 94.5555 15.1459C94.6239 14.9026 94.6233 14.7151 94.6233 14.5335H94.0179ZM94.3315 14.8347L94.3418 14.834L94.2988 14.2331L94.2885 14.2338L94.3315 14.8347ZM93.5923 13.5621C94.0076 13.977 94.0361 14.3275 94.0112 14.4875L94.6088 14.581C94.6675 14.2119 94.5585 13.6735 94.0215 13.1369L93.5923 13.5621ZM89.3474 8.1153L93.5675 13.534L94.0464 13.1649L89.8257 7.74631L89.3474 8.1153ZM87.2389 8.14343C87.6487 7.73378 88.0228 7.59672 88.3485 7.61082C88.6809 7.62528 89.0278 7.79968 89.3722 8.14343L89.8008 7.71817C89.3916 7.3093 88.9097 7.03218 88.3752 7.00899C87.8346 6.9855 87.3043 7.22472 86.8097 7.71817L87.2389 8.14343ZM83.0436 13.534L87.2637 8.1153L86.7848 7.74631L82.5647 13.1649L83.0436 13.534ZM82.6543 14.7042C82.6543 14.5244 82.6555 14.411 82.6997 14.2553C82.7457 14.093 82.8432 13.8709 83.0642 13.5041L82.5441 13.1949C82.3123 13.5806 82.1839 13.8552 82.1174 14.0918C82.0483 14.335 82.049 14.5226 82.049 14.7042H82.6543ZM90.5909 100.507C90.4226 99.2477 89.5569 98.5519 88.6331 98.5519C87.7086 98.5519 86.8429 99.2477 86.6747 100.507L87.2746 100.586C87.4084 99.5881 88.0495 99.1544 88.6331 99.1544C89.216 99.1544 89.8571 99.5881 89.9909 100.586L90.5909 100.507ZM94.5107 100.245H90.2906V100.848H94.5107V100.245ZM93.8442 99.4044C94.3721 99.9315 94.2728 100.347 94.2401 100.412L94.7819 100.681C94.9502 100.345 94.9508 99.6562 94.2734 98.9797L93.8442 99.4044ZM89.5992 93.9578L93.8193 99.3767L94.2982 99.0074L90.0775 93.5891L89.5992 93.9578ZM87.4907 93.9861C87.9012 93.5764 88.2747 93.4391 88.601 93.4535C88.9333 93.468 89.2802 93.6421 89.6241 93.9861L90.0527 93.5608C89.6434 93.1517 89.1616 92.8746 88.627 92.8517C88.0864 92.8282 87.5561 93.0674 87.0621 93.5608L87.4907 93.9861ZM83.2954 99.3767L87.5155 93.9578L87.0373 93.5891L82.8166 99.0074L83.2954 99.3767ZM82.9068 100.547C82.9068 100.367 82.9074 100.253 82.9516 100.098C82.9976 99.9357 83.0956 99.7134 83.316 99.3465L82.796 99.0375C82.5647 99.423 82.4364 99.6977 82.3692 99.9345C82.3002 100.177 82.3014 100.365 82.3014 100.547H82.9068ZM86.9749 100.245H82.6041V100.848H86.9749V100.245ZM84.7259 128.225C84.6188 128.066 84.5116 127.717 84.5116 127.283C84.5116 126.857 84.6152 126.392 84.8767 126.001L84.373 125.667C84.0303 126.179 83.9062 126.767 83.9062 127.283C83.9062 127.789 84.0267 128.268 84.2216 128.56L84.7259 128.225ZM91.6642 137.08C89.8989 134.972 85.8162 129.854 84.7259 128.225L84.2216 128.56C85.3331 130.218 89.4352 135.359 91.1993 137.466L91.6642 137.08ZM94.254 137.049C93.7207 137.527 93.1825 137.618 92.723 137.551C92.2502 137.482 91.8494 137.243 91.6339 137.049L91.2289 137.497C91.5177 137.755 92.0244 138.058 92.6352 138.147C93.2606 138.238 93.9828 138.103 94.659 137.497L94.254 137.049ZM101.029 128.804L94.2225 137.082L94.6911 137.464L101.497 129.186L101.029 128.804ZM101.027 126.172C101.868 127.219 101.387 128.358 101.027 128.807L101.499 129.183C101.946 128.627 102.594 127.158 101.499 125.796L101.027 126.172ZM94.5264 118.35C96.2923 120.459 100.061 124.971 101.027 126.172L101.499 125.796C100.529 124.589 96.7548 120.07 94.9914 117.965L94.5264 118.35ZM91.6339 117.93C92.3204 117.315 92.8828 117.278 93.3302 117.427C93.8109 117.587 94.2195 117.983 94.5264 118.35L94.9914 117.965C94.6687 117.579 94.1699 117.072 93.5221 116.856C92.841 116.629 92.0553 116.742 91.2289 117.482L91.6339 117.93ZM84.8573 126.026L91.6642 117.898L91.1993 117.513L84.3924 125.641L84.8573 126.026ZM95.515 127.489C95.515 128.721 94.4483 129.747 93.0953 129.747V130.35C94.7498 130.35 96.1204 129.085 96.1204 127.489H95.515ZM93.0953 125.232C94.4483 125.232 95.515 126.258 95.515 127.489H96.1204C96.1204 125.894 94.7498 124.629 93.0953 124.629V125.232ZM90.6756 127.489C90.6756 126.258 91.7423 125.232 93.0953 125.232V124.629C91.4408 124.629 90.0702 125.894 90.0702 127.489H90.6756ZM93.0953 129.747C91.7423 129.747 90.6756 128.721 90.6756 127.489H90.0702C90.0702 129.085 91.4408 130.35 93.0953 130.35V129.747ZM1.05939 151.688V131.202H0.454005V151.688H1.05939ZM0.908114 193.263L1.05939 151.689L0.454008 151.686L0.302734 193.26L0.908114 193.263ZM2.78312 195.07C2.46731 195.072 2.196 195.074 1.95608 195.045C1.71863 195.016 1.53824 194.961 1.39888 194.867C1.13919 194.692 0.908114 194.298 0.908114 193.261H0.302734C0.302733 194.349 0.539727 195.015 1.059 195.366C1.30914 195.534 1.59595 195.609 1.88379 195.643C2.16916 195.677 2.48122 195.675 2.78719 195.672L2.78312 195.07ZM3.02573 195.069C2.94322 195.069 2.86199 195.069 2.78312 195.07L2.78719 195.672C2.86632 195.672 2.94559 195.672 3.02573 195.672V195.069ZM49.0122 195.069H3.02573V195.672H49.0122V195.069ZM50.8291 192.692C50.8751 193.105 50.8306 193.717 50.5673 194.213C50.3168 194.684 49.8619 195.069 49.0122 195.069V195.672C50.0986 195.672 50.7531 195.153 51.1026 194.494C51.4393 193.86 51.4856 193.117 51.4308 192.626L50.8291 192.692ZM50.8273 185.579V192.659H51.4327V185.579H50.8273ZM48.4405 183.469C48.8482 183.424 49.4567 183.48 49.9514 183.78C50.424 184.067 50.8273 184.595 50.8273 185.579H51.4327C51.4327 184.395 50.9282 183.667 50.2663 183.266C49.6265 182.878 48.8735 182.815 48.3736 182.87L48.4405 183.469ZM19.8168 183.471H48.407V182.868H19.8168V183.471ZM17.2488 180.712C17.1674 181.225 17.1845 181.998 17.5481 182.611C17.7343 182.924 18.012 183.195 18.4063 183.357C18.7978 183.519 19.2813 183.564 19.8666 183.467L19.767 182.872C19.2632 182.956 18.8996 182.909 18.6377 182.801C18.3788 182.694 18.1969 182.52 18.0693 182.304C17.8052 181.86 17.7768 181.247 17.8468 180.806L17.2488 180.712ZM17.2451 168.558V180.759H17.8504V168.558H17.2451ZM20.3008 166.15C19.764 166.096 18.9577 166.14 18.3021 166.475C17.969 166.645 17.6651 166.895 17.4646 167.255C17.2633 167.616 17.1803 168.061 17.2474 168.596L17.8481 168.521C17.7941 168.091 17.865 167.779 17.9939 167.547C18.1237 167.315 18.3266 167.14 18.5785 167.011C19.0927 166.748 19.7688 166.702 20.2405 166.749L20.3008 166.15ZM44.4741 166.148H20.2706V166.751H44.4741V166.148ZM47.1969 166.148H44.4741V166.751H47.1969V166.148ZM48.5582 162.985C48.5582 163.906 48.5549 164.718 48.3649 165.303C48.2727 165.586 48.1438 165.791 47.9715 165.926C47.802 166.059 47.5606 166.148 47.1969 166.148V166.751C47.6653 166.751 48.0478 166.633 48.3463 166.399C48.642 166.167 48.8251 165.844 48.9409 165.488C49.1669 164.792 49.1636 163.871 49.1636 162.985H48.5582ZM48.5582 156.809V162.985H49.1636V156.809H48.5582ZM46.138 154.55C46.8621 154.55 47.4617 154.695 47.8765 155.029C48.2788 155.352 48.5582 155.895 48.5582 156.809H49.1636C49.1636 155.765 48.8379 155.028 48.257 154.56C47.6885 154.103 46.9267 153.947 46.138 153.947V154.55ZM32.8261 154.55H46.138V153.947H32.8261V154.55ZM20.2706 154.55H32.8261V153.947H20.2706V154.55ZM16.939 150.181C16.9285 151.109 16.9097 152.236 17.3204 153.108C17.5319 153.556 17.8591 153.944 18.3548 154.205C18.8461 154.464 19.4791 154.586 20.2844 154.549L20.2569 153.947C19.5239 153.98 19.0065 153.867 18.638 153.673C18.274 153.481 18.0322 153.199 17.8684 152.852C17.5284 152.13 17.5334 151.157 17.5444 150.188L16.939 150.181ZM16.9425 149.73C16.9425 149.876 16.9408 150.026 16.939 150.181L17.5444 150.188C17.5461 150.033 17.5479 149.879 17.5479 149.73H16.9425ZM16.9425 143.403V149.73H17.5479V143.403H16.9425ZM20.1035 139.186C19.5738 139.214 18.8077 139.397 18.1571 140.028C17.5036 140.662 17.0053 141.71 16.9427 143.392L17.5477 143.414C17.6062 141.842 18.066 140.958 18.5797 140.46C19.0966 139.958 19.707 139.81 20.1353 139.787L20.1035 139.186ZM47.1969 139.185H20.1194V139.788H47.1969V139.185ZM49.7685 135.428C49.7937 136.357 49.7507 137.306 49.4019 138.018C49.2315 138.365 48.9902 138.652 48.6477 138.853C48.3035 139.056 47.8366 139.185 47.1969 139.185V139.788C47.9188 139.788 48.4981 139.641 48.956 139.372C49.4155 139.101 49.732 138.718 49.946 138.282C50.3662 137.424 50.3989 136.34 50.3736 135.412L49.7685 135.428ZM49.7684 130.75L49.7682 135.42H50.3737V130.75H49.7684ZM46.8944 127.737C47.8618 127.737 48.5979 127.889 49.0786 128.304C49.5452 128.707 49.842 129.422 49.7688 130.733L50.3732 130.767C50.4515 129.366 50.1433 128.425 49.4752 127.849C48.8214 127.284 47.8936 127.135 46.8944 127.135V127.737ZM4.08466 127.737H46.8944V127.135H4.08466V127.737ZM1.05939 131.202C1.05939 130.671 1.05976 130.19 1.10942 129.758C1.15892 129.328 1.25515 128.972 1.43102 128.685C1.76494 128.141 2.46087 127.737 4.08466 127.737V127.135C2.38049 127.135 1.41244 127.56 0.914367 128.371C0.674238 128.763 0.562474 129.216 0.50797 129.69C0.453627 130.162 0.454005 130.679 0.454005 131.202H1.05939ZM62.3911 148.863V128.915H61.7857V148.863H62.3911ZM73.6426 162.354C69.4474 157.287 65.3344 152.32 62.322 148.672L61.8541 149.054C64.8671 152.702 68.98 157.67 73.1753 162.737L73.6426 162.354ZM73.6451 162.357L73.6433 162.356L73.1741 162.736L73.1759 162.739L73.6451 162.357ZM91.6714 184.202C90.859 183.151 82.081 172.547 73.6439 162.356L73.1765 162.739C81.6216 172.94 90.3874 183.529 91.1914 184.569L91.6714 184.202ZM94.6965 184.173C94.3969 184.47 93.8823 184.821 93.3254 184.921C93.0517 184.97 92.7726 184.958 92.5002 184.856C92.2284 184.754 91.9445 184.555 91.6714 184.202L91.1914 184.569C91.5237 184.999 91.8954 185.273 92.2865 185.42C92.6776 185.566 93.0699 185.579 93.4325 185.514C94.1481 185.385 94.7686 184.953 95.1245 184.599L94.6965 184.173ZM123.261 148.675L94.6741 184.197L95.1463 184.574L123.734 149.051L123.261 148.675ZM123.043 128.846L123.195 148.865L123.8 148.861L123.649 128.842L123.043 128.846ZM119.504 129.477C119.881 128.977 120.363 128.445 120.949 128.245C121.232 128.148 121.544 128.128 121.896 128.236C122.252 128.345 122.664 128.592 123.132 129.057L123.56 128.631C123.045 128.118 122.55 127.807 122.074 127.66C121.594 127.513 121.15 127.539 120.753 127.675C119.977 127.939 119.4 128.611 119.02 129.115L119.504 129.477ZM95.9018 158.535L119.498 129.485L119.027 129.106L95.4315 158.157L95.9018 158.535ZM90.4613 158.558C90.9226 159.018 91.7411 159.568 92.7163 159.73C93.7128 159.896 94.8485 159.651 95.8873 158.552L95.446 158.139C94.5488 159.088 93.6171 159.269 92.8162 159.136C91.9941 158.999 91.2852 158.526 90.8893 158.132L90.4613 158.558ZM65.9386 129.036L90.4419 158.537L90.9087 158.154L66.4053 128.652L65.9386 129.036ZM62.3559 129.055C62.698 128.41 63.264 127.981 63.8809 127.91C64.4851 127.842 65.2218 128.108 65.9319 129.028L66.412 128.66C65.6099 127.623 64.6824 127.213 63.8119 127.312C62.9541 127.41 62.2343 127.994 61.8202 128.775L62.3559 129.055ZM109.666 183.972L124.036 166.211L123.564 165.833L109.195 183.594L109.666 183.972ZM109.734 191.911V183.783H109.128V191.911H109.734ZM112.91 195.072C111.486 195.072 110.689 194.535 110.246 193.903C109.792 193.253 109.686 192.463 109.732 191.937L109.129 191.885C109.074 192.514 109.195 193.454 109.749 194.247C110.316 195.057 111.308 195.674 112.91 195.674V195.072ZM123.8 195.072H112.91V195.674H123.8V195.072ZM123.497 166.022V195.373H124.103V166.022H123.497ZM76.5412 183.594L62.3233 166.133L61.8529 166.513L76.0708 183.973L76.5412 183.594ZM76.609 191.61V183.783H76.0036V191.61H76.609ZM72.9785 195.674C74.4254 195.674 75.3486 194.984 75.8965 194.124C76.4334 193.279 76.609 192.278 76.609 191.61H76.0036C76.0036 192.196 75.8456 193.077 75.3849 193.801C74.9345 194.509 74.1935 195.072 72.9785 195.072V195.674ZM62.0884 195.674H72.9785V195.072H62.0884V195.674ZM61.7857 166.323V195.373H62.3911V166.323H61.7857ZM140.885 127.135C140.3 127.135 139.831 127.246 139.46 127.451C139.086 127.657 138.83 127.948 138.658 128.276C138.323 128.915 138.305 129.703 138.305 130.298H138.91C138.91 129.688 138.938 129.045 139.195 128.555C139.318 128.318 139.495 128.12 139.754 127.977C140.014 127.834 140.376 127.737 140.885 127.737V127.135ZM153.183 127.135H140.885V127.737H153.183V127.135ZM155.611 129.846C155.611 128.856 155.232 128.193 154.725 127.77C154.23 127.357 153.637 127.192 153.223 127.137L153.143 127.735C153.488 127.78 153.958 127.917 154.336 128.232C154.702 128.537 155.006 129.029 155.006 129.846H155.611ZM155.61 130.099C155.611 129.961 155.611 129.875 155.611 129.846H155.006C155.006 129.874 155.006 129.957 155.005 130.096L155.61 130.099ZM155.61 130.216L155.61 130.099L155.005 130.096L155.004 130.213L155.61 130.216ZM155.605 131.098L155.61 130.216L155.004 130.213L155 131.094L155.605 131.098ZM155.605 131.097V131.095H155V131.097H155.605ZM155.611 193.105C155.382 174.145 155.568 138.258 155.605 131.098L155 131.094C154.963 138.252 154.777 174.146 155.006 193.112L155.611 193.105ZM153.381 195.816C154.27 195.68 154.836 195.193 155.172 194.643C155.502 194.104 155.611 193.505 155.611 193.108H155.006C155.006 193.415 154.918 193.901 154.655 194.33C154.399 194.749 153.978 195.115 153.289 195.221L153.381 195.816ZM140.581 195.819H153.335V195.217H140.581V195.819ZM138.305 192.657C138.305 194.87 139.747 195.696 140.535 195.816L140.627 195.221C140.1 195.14 138.91 194.539 138.91 192.657H138.305ZM138.305 130.298V192.657H138.91V130.298H138.305ZM215.895 131.306C207.675 127.14 196.176 124.929 186.34 126.164C176.507 127.398 168.226 132.1 166.682 141.853L167.28 141.947C168.762 132.582 176.701 127.981 186.416 126.761C196.127 125.543 207.504 127.729 215.62 131.842L215.895 131.306ZM215.909 141.634L216.061 131.578L215.455 131.569L215.304 141.625L215.909 141.634ZM210.43 142.786C211.177 143.042 211.84 143.27 212.418 143.426C212.994 143.583 213.513 143.676 213.97 143.65C214.439 143.623 214.847 143.469 215.18 143.132C215.505 142.805 215.732 142.33 215.899 141.707L215.314 141.552C215.16 142.126 214.969 142.488 214.749 142.709C214.539 142.922 214.281 143.028 213.935 143.049C213.577 143.069 213.134 142.996 212.577 142.845C212.022 142.695 211.38 142.475 210.627 142.216L210.43 142.786ZM208.639 142.187C209.289 142.395 209.884 142.598 210.43 142.786L210.627 142.216C210.082 142.029 209.481 141.823 208.824 141.613L208.639 142.187ZM185.086 142.063C185.692 141.124 187.59 139.878 191.376 139.512C195.147 139.149 200.738 139.666 208.639 142.187L208.824 141.613C200.872 139.076 195.194 138.539 191.318 138.913C187.458 139.285 185.332 140.569 184.577 141.737L185.086 142.063ZM194.301 152.302C191.746 151.495 188.662 150.456 186.608 148.834C185.586 148.027 184.841 147.093 184.532 145.994C184.224 144.9 184.334 143.599 185.103 142.032L184.559 141.768C183.74 143.437 183.592 144.89 183.949 146.157C184.304 147.418 185.148 148.45 186.231 149.306C188.387 151.008 191.581 152.076 194.119 152.876L194.301 152.302ZM218.733 175.824C218.797 172.533 218.885 168.26 215.818 164C212.756 159.747 206.59 155.559 194.288 152.297L194.132 152.88C206.374 156.125 212.382 160.261 215.326 164.351C218.265 168.434 218.192 172.522 218.127 175.812L218.733 175.824ZM218.716 177.127C218.716 176.713 218.724 176.278 218.733 175.824L218.127 175.812C218.119 176.266 218.11 176.705 218.11 177.127H218.716ZM167.697 189.885C170.524 192.184 175.01 194.108 180.156 195.318C185.306 196.528 191.144 197.03 196.693 196.459C202.24 195.889 207.52 194.246 211.529 191.148C215.548 188.042 218.272 183.488 218.715 177.148L218.111 177.106C217.68 183.276 215.04 187.672 211.158 190.672C207.267 193.679 202.108 195.297 196.631 195.86C191.156 196.422 185.386 195.928 180.294 194.731C175.197 193.533 170.809 191.637 168.081 189.419L167.697 189.885ZM167.586 180.288V189.652H168.191V180.288H167.586ZM173.93 178.818C173.174 178.42 172.415 178.027 171.706 177.729C171.001 177.433 170.316 177.22 169.71 177.204C169.088 177.189 168.528 177.384 168.139 177.918C167.767 178.43 167.586 179.21 167.586 180.288H168.191C168.191 179.256 168.369 178.63 168.63 178.271C168.874 177.936 169.221 177.795 169.695 177.807C170.185 177.819 170.785 177.996 171.471 178.284C172.152 178.57 172.888 178.951 173.647 179.35L173.93 178.818ZM200.869 178.592C200.746 179.49 200.048 180.489 198.752 181.357C197.462 182.221 195.612 182.93 193.267 183.257C188.579 183.909 181.937 183.024 173.93 178.818L173.647 179.35C181.743 183.604 188.513 184.526 193.35 183.853C195.768 183.517 197.709 182.782 199.089 181.857C200.463 180.938 201.314 179.807 201.468 178.672L200.869 178.592ZM188.854 169.381C193.441 170.985 196.444 172.038 198.313 173.335C199.236 173.976 199.867 174.667 200.272 175.502C200.677 176.339 200.866 177.344 200.866 178.632H201.471C201.471 177.288 201.274 176.185 200.817 175.24C200.358 174.292 199.648 173.527 198.66 172.841C196.705 171.485 193.602 170.403 189.055 168.812L188.854 169.381ZM187.37 168.861C187.881 169.041 188.377 169.214 188.854 169.381L189.055 168.812C188.577 168.645 188.083 168.473 187.571 168.292L187.37 168.861ZM166.681 141.862C165.999 147.219 165.935 152.38 168.695 157.007C171.456 161.634 177.002 165.663 187.381 168.864L187.56 168.289C177.246 165.107 171.866 161.142 169.216 156.699C166.564 152.255 166.602 147.269 167.282 141.938L166.681 141.862ZM86.2824 60.1374L66.9913 84.9261L67.4702 85.2948L86.7612 60.5065L86.2824 60.1374ZM90.2246 60.1339C89.5877 59.3396 88.8982 58.9609 88.179 59.0071C87.4768 59.0523 86.8429 59.4984 86.2939 60.1237L86.7497 60.5198C87.2558 59.9434 87.7522 59.6383 88.2184 59.6084C88.667 59.5795 89.1833 59.8017 89.7518 60.5095L90.2246 60.1339ZM109.519 84.9261L90.2276 60.1374L89.7488 60.5065L109.04 85.2948L109.519 84.9261ZM109.603 85.4135L109.582 85.0906L108.977 85.1303L108.999 85.4532L109.603 85.4135ZM109.005 85.1514L108.999 85.4261L109.604 85.4406L109.611 85.1653L109.005 85.1514ZM128.775 60.1352L109.07 84.9719L109.545 85.3448L129.25 60.5083L128.775 60.1352ZM132.739 60.133C132.097 59.3386 131.404 58.961 130.682 59.0071C129.976 59.0522 129.338 59.4973 128.785 60.1228L129.239 60.521C129.749 59.9444 130.249 59.6384 130.72 59.6084C131.174 59.5794 131.696 59.8027 132.268 60.5107L132.739 60.133ZM152.172 84.9249L132.742 60.1365L132.265 60.5071L151.695 85.2954L152.172 84.9249ZM152.236 100.435V85.1105H151.631V100.435H152.236ZM148.062 99.1297C149.707 101.009 151.353 101.026 152.058 100.709L151.809 100.16C151.401 100.344 150.031 100.461 148.518 98.7339L148.062 99.1297ZM132.263 78.6837L148.05 99.1158L148.531 98.7483L132.743 78.3168L132.263 78.6837ZM129.25 78.6855C129.74 78.0632 130.304 77.7873 130.815 77.7873C131.321 77.7873 131.841 78.0578 132.252 78.6681L132.755 78.3325C132.255 77.5903 131.561 77.1849 130.815 77.1849C130.073 77.1849 129.347 77.5855 128.773 78.3144L129.25 78.6855ZM113.465 99.1158L129.252 78.6837L128.772 78.3168L112.985 98.7483L113.465 99.1158ZM110.312 101.172C110.978 101.066 111.624 100.735 112.166 100.35C112.71 99.9622 113.171 99.5038 113.467 99.1134L112.983 98.7507C112.727 99.0893 112.311 99.5056 111.814 99.8592C111.315 100.214 110.757 100.491 110.215 100.577L110.312 101.172ZM105.434 99.1291C106.23 100.045 107.262 100.604 108.177 100.91C108.635 101.063 109.069 101.155 109.437 101.195C109.797 101.235 110.121 101.229 110.347 101.164L110.18 100.585C110.067 100.617 109.835 100.633 109.503 100.597C109.18 100.561 108.789 100.479 108.37 100.339C107.529 100.059 106.6 99.5502 105.891 98.7351L105.434 99.1291ZM89.7476 78.6831L105.422 99.1146L105.903 98.7489L90.2288 78.3174L89.7476 78.6831ZM86.7612 78.6849C87.2473 78.062 87.8067 77.7873 88.3116 77.7873C88.8122 77.7873 89.328 78.0566 89.7367 78.6668L90.2403 78.3331C89.7439 77.5915 89.0544 77.1849 88.3116 77.1849C87.5736 77.1849 86.852 77.5861 86.283 78.3156L86.7612 78.6849ZM71.0886 99.1146L86.7624 78.6831L86.2812 78.3174L70.6073 98.7489L71.0886 99.1146ZM67.0059 100.636C67.3358 101.001 67.7347 101.157 68.1537 101.148C68.5575 101.141 68.9576 100.983 69.319 100.768C70.04 100.34 70.7005 99.6303 71.0904 99.1128L70.6055 98.7513C70.2416 99.2357 69.6362 99.8779 69.0085 100.251C68.6949 100.437 68.4001 100.541 68.1422 100.547C67.8988 100.551 67.6682 100.468 67.4557 100.233L67.0059 100.636ZM66.9278 85.1105V100.435H67.5332V85.1105H66.9278ZM67.3824 72.2491V40.9414H66.777V72.2491H67.3824ZM76.6423 60.1673L66.8454 72.0582L67.3134 72.4401L77.1103 60.5493L76.6423 60.1673ZM76.5739 53.5849V60.3583H77.1793V53.5849H76.5739ZM66.84 41.1253L76.6369 53.7689L77.1163 53.401L67.3195 40.7575L66.84 41.1253ZM129.545 100.586C129.679 99.5887 130.323 99.1544 130.909 99.1544C131.496 99.1544 132.139 99.5887 132.273 100.586L132.873 100.507C132.704 99.2465 131.835 98.5519 130.909 98.5519C129.983 98.5519 129.114 99.2465 128.945 100.507L129.545 100.586ZM124.859 100.848H129.245V100.245H124.859V100.848ZM125.053 99.0369C124.82 99.4224 124.692 99.6972 124.624 99.9339C124.555 100.177 124.556 100.365 124.556 100.547H125.162C125.162 100.367 125.162 100.254 125.207 100.098C125.253 99.9357 125.351 99.714 125.572 99.3471L125.053 99.0369ZM129.309 93.5885L125.074 99.0068L125.552 99.3767L129.787 93.9584L129.309 93.5885ZM132.333 93.5602C131.922 93.1517 131.439 92.8746 130.903 92.8517C130.361 92.8282 129.83 93.0668 129.334 93.5602L129.762 93.9861C130.174 93.5764 130.549 93.4391 130.877 93.4535C131.211 93.468 131.559 93.6427 131.905 93.9861L132.333 93.5602ZM136.593 99.0068L132.358 93.5885L131.88 93.9584L136.115 99.3767L136.593 99.0068ZM137.079 100.682C137.248 100.345 137.249 99.6562 136.568 98.979L136.14 99.405C136.67 99.9321 136.57 100.347 136.537 100.412L137.079 100.682ZM132.573 100.848H136.808V100.245H132.573V100.848ZM132.62 14.6643C132.451 13.4042 131.582 12.7097 130.656 12.7096C129.73 12.7095 128.861 13.4039 128.692 14.6638L129.292 14.7435C129.426 13.7462 130.069 13.3119 130.656 13.312C131.243 13.3121 131.886 13.7464 132.02 14.7439L132.62 14.6643ZM134.181 14.4029H132.32V15.0054H134.181V14.4029ZM132.341 15.135L134.202 15.0046L134.16 14.4037L132.298 14.5341L132.341 15.135ZM128.69 14.7058C128.695 15.3723 128.92 15.8917 129.289 16.244C129.652 16.5931 130.132 16.7556 130.607 16.7538C131.554 16.7503 132.533 16.0852 132.622 14.856L132.018 14.8131C131.955 15.6855 131.28 16.1488 130.605 16.1514C130.268 16.1526 129.946 16.0377 129.708 15.81C129.474 15.5855 129.299 15.2289 129.295 14.7015L128.69 14.7058ZM125.335 15.6752C124.918 15.2606 124.89 14.9105 124.915 14.7508L124.317 14.6575C124.259 15.0271 124.369 15.5652 124.907 16.1012L125.335 15.6752ZM129.595 21.1219L125.36 15.7033L124.882 16.0731L129.117 21.4918L129.595 21.1219ZM131.714 21.0939C131.302 21.5035 130.926 21.641 130.599 21.6268C130.264 21.6124 129.916 21.4376 129.571 21.0939L129.142 21.5198C129.553 21.9287 130.037 22.2055 130.572 22.2287C131.114 22.2521 131.646 22.0133 132.142 21.5198L131.714 21.0939ZM135.924 15.7033L131.689 21.1219L132.167 21.4918L136.402 16.0731L135.924 15.7033ZM136.314 14.5335C136.314 14.7133 136.313 14.8266 136.269 14.9821C136.223 15.1443 136.124 15.3663 135.904 15.7332L136.422 16.0432C136.655 15.6575 136.784 15.3828 136.851 15.1461C136.921 14.9028 136.919 14.7151 136.919 14.5335H136.314ZM136.628 14.8347L136.638 14.834L136.595 14.2331L136.585 14.2338L136.628 14.8347ZM135.887 13.5624C136.304 13.9774 136.333 14.3278 136.307 14.4873L136.905 14.5812C136.964 14.2116 136.855 13.673 136.315 13.1364L135.887 13.5624ZM131.627 8.11572L135.862 13.5344L136.34 13.1645L132.105 7.74588L131.627 8.11572ZM129.509 8.14379C129.921 7.73414 130.296 7.59666 130.624 7.61082C130.958 7.62528 131.307 7.8001 131.652 8.14379L132.08 7.71781C131.669 7.30894 131.186 7.03212 130.65 7.00899C130.108 6.98556 129.577 7.22436 129.081 7.71781L129.509 8.14379ZM125.298 13.5344L129.534 8.11572L129.056 7.74588L124.821 13.1645L125.298 13.5344ZM124.909 14.7042C124.909 14.5244 124.91 14.4111 124.954 14.2556C125 14.0934 125.098 13.8714 125.319 13.5044L124.8 13.1945C124.568 13.5801 124.439 13.8548 124.371 14.0915C124.302 14.3349 124.303 14.5226 124.303 14.7042H124.909ZM124.616 14.4029H124.606V15.0054H124.616V14.4029ZM152.539 72.2491V40.9414H151.933V72.2491H152.539ZM142.165 59.79L151.996 72.4335L152.475 72.0648L142.644 59.4213L142.165 59.79ZM142.101 52.8323V59.6057H142.707V52.8323H142.101ZM152.002 40.75L142.17 52.641L142.638 53.0237L152.47 41.1328L152.002 40.75ZM99.8719 52.6215L109.761 40.7399L109.295 40.3557L99.4058 52.2372L99.8719 52.6215ZM99.9415 59.2084V52.4294H99.3362V59.2084H99.9415ZM109.769 72.0015L99.8798 59.0264L99.3979 59.3904L109.286 72.3654L109.769 72.0015ZM119.027 59.0281L109.285 72.0033L109.77 72.3636L119.512 59.3887L119.027 59.0281ZM118.967 52.4294V59.2084H119.572V52.4294H118.967ZM109.293 40.7383L119.035 52.6198L119.504 52.2389L109.762 40.3574L109.293 40.7383Z" fill="white" fill-opacity="0.9"/>
</g>
<defs>
<clipPath id="clip0_121_255">
<rect width="219.147" height="196.995" fill="white"/>
</clipPath>
</defs>
</svg>
