<svg width="208" height="70" viewBox="0 0 208 70" fill="none" xmlns="http://www.w3.org/2000/svg">
<path d="M0.5163 68.7941V1.36846H45.3159V12.229H12.8249V29.5153H43.5058V40.3758H12.8249V57.9336H45.3159V68.7941H0.5163ZM54.3415 68.7941V1.36846H66.1071L91.3577 35.6695H85.7465L110.454 1.36846H122.22V68.7941H109.821V15.3966L114.617 16.5732L89.0046 50.6932H87.5566L62.5774 16.5732L66.6501 15.3966V68.7941H54.3415ZM135.124 68.7941V1.36846H147.432V68.7941H135.124ZM184.475 69.8801C180.191 69.8801 176.209 69.0957 172.529 67.527C168.908 65.9583 165.771 63.7862 163.116 61.0107C160.522 58.1749 158.621 54.8866 157.414 51.1458L167.641 46.7111C169.27 50.5726 171.624 53.6195 174.701 55.852C177.778 58.0241 181.247 59.1101 185.109 59.1101C187.281 59.1101 189.151 58.7783 190.72 58.1146C192.349 57.3905 193.586 56.4252 194.431 55.2184C195.336 54.0117 195.788 52.5637 195.788 50.8742C195.788 48.8832 195.185 47.2541 193.978 45.987C192.832 44.6596 191.082 43.6339 188.729 42.9099L175.787 38.7467C170.538 37.1176 166.586 34.674 163.931 31.4158C161.276 28.1577 159.949 24.3264 159.949 19.9218C159.949 16.0603 160.884 12.6513 162.754 9.69485C164.685 6.73838 167.34 4.44561 170.719 2.81653C174.158 1.12712 178.08 0.282417 182.484 0.282417C186.527 0.282417 190.237 1.00645 193.616 2.45452C196.995 3.84225 199.891 5.80317 202.305 8.33729C204.778 10.8111 206.619 13.7374 207.825 17.1162L197.689 21.6414C196.361 18.2626 194.37 15.6681 191.716 13.858C189.061 11.9876 185.984 11.0524 182.484 11.0524C180.433 11.0524 178.623 11.4144 177.054 12.1385C175.485 12.8022 174.248 13.7675 173.343 15.0346C172.498 16.2413 172.076 17.6894 172.076 19.3788C172.076 21.2492 172.679 22.9085 173.886 24.3565C175.093 25.7443 176.933 26.8303 179.407 27.6147L191.806 31.5064C197.176 33.2561 201.188 35.6695 203.843 38.7467C206.558 41.8238 207.916 45.625 207.916 50.1502C207.916 54.0117 206.92 57.4207 204.929 60.3772C202.938 63.3336 200.193 65.6566 196.693 67.346C193.194 69.0354 189.121 69.8801 184.475 69.8801Z" fill="white" fill-opacity="0.9"/>
</svg>
