<svg width="107" height="39" viewBox="0 0 107 39" fill="none" xmlns="http://www.w3.org/2000/svg">
<path fill-rule="evenodd" clip-rule="evenodd" d="M41.2684 4.31491C40.9714 4.75862 41.0457 5.35033 41.1941 5.57234C41.7349 6.37955 43.745 8.90036 44.6118 9.93579C44.8595 10.1575 45.5032 10.4683 46.0976 9.93579L49.4407 5.86805C49.6388 5.62148 49.9162 4.98062 49.4407 4.38891C48.9653 3.79719 47.1128 1.57861 46.246 0.543173C45.9365 0.173164 45.3546 -0.344555 44.6118 0.321166L41.2684 4.31491ZM45.4289 6.38577C46.1675 6.38577 46.7661 5.82276 46.7661 5.12832C46.7661 4.43419 46.1675 3.87118 45.4289 3.87118C44.6903 3.87118 44.0917 4.43419 44.0917 5.12832C44.0917 5.82276 44.6903 6.38577 45.4289 6.38577ZM0.0743014 6.95262V17.0184L0 37.4458C-1.48674e-06 38.4899 0.459811 38.4866 1.07064 38.4824C1.10944 38.4822 1.14885 38.4822 1.1888 38.4822H23.7763C24.7273 38.4822 24.866 37.5938 24.8165 37.1498V33.6711C24.8165 32.6055 23.9249 32.4377 23.4791 32.4871H9.43621C8.36626 32.6647 8.24738 31.7717 8.32168 31.3028V25.3077C8.20281 24.3605 9.16378 24.2223 9.6591 24.2717H21.5473H22.8847C23.702 24.2717 23.702 23.4574 23.702 22.5694V19.5347C23.702 18.5727 23.1076 18.2767 22.3646 18.2767H15.8261H9.6591C8.14794 18.3451 8.16079 17.2116 8.17138 16.2798C8.17224 16.2037 8.17307 16.1289 8.17307 16.0563V12.9477C8.23251 11.3489 9.11424 11.0479 9.58482 11.0233H22.8847C24.2221 11.0233 24.3211 9.93786 24.2964 9.02497V6.73062C24.3707 5.39829 23.702 5.10228 22.7361 5.10228H1.70892C0.0743014 5.10228 0.0743014 5.9166 0.0743014 6.95262ZM30.199 5.82898V15.6304C31.6786 17.4227 33.6988 19.8639 35.7594 22.3536L35.76 22.3545C39.906 27.3644 44.2145 32.5706 44.6118 33.0845C45.2059 33.8538 45.9986 33.405 46.3204 33.0845L60.3618 15.6304L60.2874 5.79405C59.3216 4.83262 58.6532 5.52291 58.2815 6.01606L46.6917 20.2898C45.7408 21.2957 44.6612 20.709 44.2401 20.2898L32.2049 5.79405C31.4619 4.83262 30.5704 5.12833 30.199 5.82898ZM60.5104 24.0616L53.4526 32.7887V36.7825C53.4029 37.3493 53.6753 38.4833 55.1614 38.4833H60.5104V24.0616ZM30.199 24.2096L37.1825 32.7887V36.6345C37.1825 37.2508 36.8555 38.4833 35.548 38.4833H30.199V24.2096ZM67.7836 6.50861C67.7836 5.9163 67.8282 5.10228 68.9022 5.10228H74.9425C75.3154 5.15171 75.9865 5.39829 75.9865 6.28661C75.9865 6.30023 75.9865 6.34196 75.9862 6.40975L75.9859 6.46746L75.9835 6.90023C75.9654 10.4177 75.8741 28.0529 75.9865 37.3706C75.9865 37.7158 75.7927 38.4363 75.0172 38.5547H68.7529C68.4297 38.5052 67.7836 38.1551 67.7836 37.1486V6.50861ZM81.72 12.2091C83.2062 2.81503 97.6537 3.06722 105.678 7.13555L105.604 12.0765C105.289 13.2528 104.583 13.0101 103.109 12.5045C102.842 12.4125 102.548 12.3118 102.227 12.2091C94.4403 9.72384 91.1561 11.1737 90.4873 12.2091C88.9271 15.3897 92.5926 16.672 95.0941 17.4609C107.15 20.6584 107.053 25.6413 106.99 28.8749C106.986 29.0981 106.982 29.3127 106.982 29.5179C106.124 41.8119 87.623 40.1108 82.1657 35.6725V31.0713C82.1657 28.9969 83.5752 29.6972 85.0637 30.4796C92.9726 34.637 98.2395 32.2548 98.5119 30.2576C98.5119 27.6714 96.9987 27.1418 92.5129 25.5724C92.2783 25.4901 92.035 25.4051 91.7838 25.3169C81.6195 22.1807 81.0513 17.4609 81.72 12.2091Z" fill="white" fill-opacity="0.9"/>
</svg>
