<svg width="40" height="40" viewBox="0 0 40 40" fill="none" xmlns="http://www.w3.org/2000/svg">
<path fill-rule="evenodd" clip-rule="evenodd" d="M20.2605 0C31.075 0 39.855 8.76847 39.855 19.5687C39.855 30.369 31.075 39.1374 20.2605 39.1374C9.44603 39.1374 0.666016 30.369 0.666016 19.5687C0.666016 8.76847 9.44603 0 20.2605 0ZM20.2605 7.33827C16.9346 7.33827 16.5175 7.35233 15.2112 7.41188C13.9078 7.47128 13.0175 7.67805 12.2385 7.98037C11.4332 8.29293 10.7502 8.71114 10.0694 9.39108C9.38855 10.071 8.96979 10.7531 8.65681 11.5573C8.35409 12.3352 8.14713 13.2243 8.08758 14.5261C8.02803 15.8306 8.01395 16.2472 8.01395 19.5687C8.01395 22.8903 8.02803 23.3068 8.08758 24.6113C8.14713 25.9131 8.35409 26.8022 8.65681 27.5801C8.96979 28.3844 9.38855 29.0664 10.0694 29.7464C10.7502 30.4264 11.4332 30.8446 12.2385 31.1571C13.0175 31.4594 13.9078 31.6662 15.2112 31.7256C16.5175 31.7851 16.9346 31.7992 20.2605 31.7992C23.5864 31.7992 24.0035 31.7851 25.3097 31.7256C26.6132 31.6662 27.5035 31.4594 28.2824 31.1571C29.0877 30.8446 29.7707 30.4264 30.4516 29.7464C31.1325 29.0664 31.5512 28.3844 31.8642 27.5801C32.1668 26.8022 32.3739 25.9131 32.4333 24.6113C32.493 23.3068 32.507 22.8903 32.507 19.5687C32.507 16.2472 32.493 15.8306 32.4333 14.5261C32.3739 13.2243 32.1668 12.3352 31.8642 11.5573C31.5512 10.7531 31.1325 10.071 30.4516 9.39108C29.7707 8.71114 29.0877 8.29293 28.2824 7.98037C27.5035 7.67805 26.6132 7.47128 25.3097 7.41188C24.0035 7.35233 23.5864 7.33827 20.2605 7.33827ZM20.2605 9.54197C23.5305 9.54197 23.9178 9.55443 25.2092 9.61329C26.4032 9.66771 27.0516 9.86691 27.4831 10.0344C28.0548 10.2562 28.4628 10.5213 28.8913 10.9493C29.3199 11.3772 29.5853 11.7847 29.8074 12.3556C29.9751 12.7866 30.1746 13.4341 30.229 14.6265C30.288 15.9162 30.3004 16.303 30.3004 19.5687C30.3004 22.8344 30.288 23.2212 30.229 24.5109C30.1746 25.7034 29.9751 26.3509 29.8074 26.7819C29.5853 27.3528 29.3199 27.7602 28.8913 28.1881C28.4628 28.6162 28.0548 28.8812 27.4831 29.103C27.0516 29.2705 26.4032 29.4698 25.2092 29.5242C23.918 29.583 23.5307 29.5955 20.2605 29.5955C16.9903 29.5955 16.6031 29.583 15.3118 29.5242C14.1178 29.4698 13.4694 29.2705 13.0379 29.103C12.4662 28.8812 12.0582 28.6162 11.6297 28.1881C11.2011 27.7602 10.9357 27.3528 10.7136 26.7819C10.5459 26.3509 10.3464 25.7034 10.2919 24.5109C10.2329 23.2212 10.2205 22.8344 10.2205 19.5687C10.2205 16.303 10.2329 15.9162 10.2919 14.6265C10.3464 13.4341 10.5459 12.7866 10.7136 12.3556C10.9357 11.7847 11.2011 11.3772 11.6297 10.9493C12.0582 10.5213 12.4662 10.2562 13.0379 10.0344C13.4694 9.86691 14.1178 9.66771 15.3118 9.61329C16.6032 9.55443 16.9905 9.54197 20.2605 9.54197ZM20.2605 13.2882C16.7873 13.2882 13.9717 16.1001 13.9717 19.5687C13.9717 23.0374 16.7873 25.8492 20.2605 25.8492C23.7337 25.8492 26.5493 23.0374 26.5493 19.5687C26.5493 16.1001 23.7337 13.2882 20.2605 13.2882ZM20.2605 23.6455C18.006 23.6455 16.1783 21.8203 16.1783 19.5687C16.1783 17.3172 18.006 15.4919 20.2605 15.4919C22.515 15.4919 24.3427 17.3172 24.3427 19.5687C24.3427 21.8203 22.515 23.6455 20.2605 23.6455ZM28.2674 13.0401C28.2674 13.8507 27.6093 14.5077 26.7977 14.5077C25.9861 14.5077 25.3282 13.8507 25.3282 13.0401C25.3282 12.2295 25.9861 11.5725 26.7977 11.5725C27.6093 11.5725 28.2674 12.2295 28.2674 13.0401Z" fill="white"/>
</svg>
