<svg width="17" height="16" viewBox="0 0 17 16" fill="none" xmlns="http://www.w3.org/2000/svg">
<path d="M15.9233 13.5261C15.5973 14.4288 14.0331 15.2526 13.2816 15.3633C12.6069 15.462 11.7532 15.5044 10.8161 15.2102C10.2481 15.0312 9.51908 14.7939 8.58525 14.3956C4.65973 12.7215 2.09617 8.81848 1.89999 8.56066C1.70448 8.30285 0.30208 6.46567 0.30208 4.5642C0.30208 2.66274 1.31279 1.72758 1.672 1.34053C2.03122 0.953475 2.45473 0.856712 2.71585 0.856712C2.97698 0.856712 3.23744 0.860025 3.4661 0.870629C3.70668 0.882559 4.02944 0.779831 4.3469 1.53405C4.67298 2.30816 5.4557 4.20963 5.55247 4.40382C5.65055 4.59734 5.7155 4.82335 5.5856 5.08116C5.4557 5.33897 5.39075 5.50002 5.19457 5.72603C4.9984 5.95203 4.78366 6.22972 4.60737 6.40337C4.41119 6.59623 4.20772 6.805 4.43571 7.19206C4.6637 7.57911 5.44907 8.84432 6.61288 9.86895C8.10741 11.1852 9.36864 11.5935 9.75967 11.787C10.1507 11.9805 10.3793 11.948 10.6073 11.6902C10.8353 11.4317 11.5856 10.5615 11.846 10.1751C12.1065 9.78876 12.3676 9.85238 12.7268 9.98162C13.0861 10.1102 15.0101 11.0447 15.4011 11.2382C15.7921 11.4317 16.0532 11.5285 16.1513 11.6896C16.2494 11.8499 16.2494 12.6241 15.9233 13.5261Z" fill="white"/>
</svg>
