<svg width="60" height="10" viewBox="0 0 60 10" fill="none" xmlns="http://www.w3.org/2000/svg">
<path d="M4.63599 0.220922C4.74429 -0.0736403 5.16089 -0.0736407 5.26919 0.220921L6.27686 2.96179C6.32566 3.09451 6.45205 3.18271 6.59346 3.18271H9.56721C9.89091 3.18271 10.0288 3.5944 9.77034 3.78933L7.48367 5.51413C7.37044 5.59953 7.32273 5.74664 7.36428 5.88224L8.19738 8.60149C8.28933 8.90163 7.95742 9.15363 7.69302 8.98441L5.13442 7.34691C5.02358 7.27597 4.8816 7.27597 4.77076 7.34691L2.21216 8.98441C1.94776 9.15363 1.61585 8.90163 1.7078 8.60149L2.5409 5.88224C2.58245 5.74664 2.53474 5.59953 2.42151 5.51413L0.134845 3.78933C-0.123582 3.5944 0.0142736 3.18271 0.337973 3.18271H3.31172C3.45312 3.18271 3.57952 3.09451 3.62832 2.96179L4.63599 0.220922Z" fill="#FFCC00"/>
<path d="M17.0043 0.220922C17.1126 -0.0736403 17.5292 -0.0736407 17.6375 0.220921L18.6452 2.96179C18.694 3.09451 18.8204 3.18271 18.9618 3.18271H21.9356C22.2593 3.18271 22.3971 3.5944 22.1387 3.78933L19.852 5.51413C19.7388 5.59953 19.6911 5.74664 19.7326 5.88224L20.5657 8.60149C20.6577 8.90163 20.3258 9.15363 20.0614 8.98441L17.5028 7.34691C17.3919 7.27597 17.2499 7.27597 17.1391 7.34691L14.5805 8.98441C14.3161 9.15363 13.9842 8.90163 14.0761 8.60149L14.9092 5.88224C14.9508 5.74664 14.9031 5.59953 14.7899 5.51413L12.5032 3.78933C12.2448 3.5944 12.3826 3.18271 12.7063 3.18271H15.6801C15.8215 3.18271 15.9479 3.09451 15.9967 2.96179L17.0043 0.220922Z" fill="#FFCC00"/>
<path d="M29.3727 0.220922C29.481 -0.0736403 29.8976 -0.0736407 30.0059 0.220921L31.0135 2.96179C31.0623 3.09451 31.1887 3.18271 31.3302 3.18271H34.3039C34.6276 3.18271 34.7654 3.5944 34.507 3.78933L32.2204 5.51413C32.1071 5.59953 32.0594 5.74664 32.101 5.88224L32.9341 8.60149C33.026 8.90163 32.6941 9.15363 32.4297 8.98441L29.8711 7.34691C29.7603 7.27597 29.6183 7.27597 29.5074 7.34691L26.9488 8.98441C26.6844 9.15363 26.3525 8.90163 26.4445 8.60149L27.2776 5.88224C27.3191 5.74664 27.2714 5.59953 27.1582 5.51413L24.8715 3.78933C24.6131 3.5944 24.751 3.18271 25.0747 3.18271H28.0484C28.1898 3.18271 28.3162 3.09451 28.365 2.96179L29.3727 0.220922Z" fill="#FFCC00"/>
<path d="M41.741 0.220922C41.8493 -0.0736403 42.2659 -0.0736407 42.3742 0.220921L43.3819 2.96179C43.4307 3.09451 43.5571 3.18271 43.6985 3.18271H46.6722C46.9959 3.18271 47.1338 3.5944 46.8754 3.78933L44.5887 5.51413C44.4755 5.59953 44.4278 5.74664 44.4693 5.88224L45.3024 8.60149C45.3944 8.90163 45.0625 9.15363 44.7981 8.98441L42.2395 7.34691C42.1286 7.27597 41.9866 7.27597 41.8758 7.34691L39.3172 8.98441C39.0528 9.15363 38.7209 8.90163 38.8128 8.60149L39.6459 5.88224C39.6875 5.74664 39.6398 5.59953 39.5265 5.51413L37.2399 3.78933C36.9814 3.5944 37.1193 3.18271 37.443 3.18271H40.4167C40.5582 3.18271 40.6846 3.09451 40.7333 2.96179L41.741 0.220922Z" fill="#FFCC00"/>
<path d="M54.1094 0.220922C54.2177 -0.0736403 54.6343 -0.0736407 54.7426 0.220921L55.7502 2.96179C55.799 3.09451 55.9254 3.18271 56.0668 3.18271H59.0406C59.3643 3.18271 59.5021 3.5944 59.2437 3.78933L56.957 5.51413C56.8438 5.59953 56.7961 5.74664 56.8377 5.88224L57.6708 8.60149C57.7627 8.90163 57.4308 9.15363 57.1664 8.98441L54.6078 7.34691C54.497 7.27597 54.355 7.27597 54.2441 7.34691L51.6855 8.98441C51.4211 9.15363 51.0892 8.90163 51.1812 8.60149L52.0143 5.88224C52.0558 5.74664 52.0081 5.59953 51.8949 5.51413L49.6082 3.78933C49.3498 3.5944 49.4876 3.18271 49.8113 3.18271H52.7851C52.9265 3.18271 53.0529 3.09451 53.1017 2.96179L54.1094 0.220922Z" fill="#FFCC00"/>
</svg>
