<svg width="50" height="51" viewBox="0 0 50 51" fill="none" xmlns="http://www.w3.org/2000/svg">
<path fill-rule="evenodd" clip-rule="evenodd" d="M0 25.2769C0 11.4697 11.1929 0.276855 25 0.276855C38.8071 0.276855 50 11.4697 50 25.2769C50 39.084 38.8071 50.2769 25 50.2769C11.1929 50.2769 0 39.084 0 25.2769ZM30.8532 24.7379C31.0286 24.915 31.0272 25.2008 30.85 25.3761L21.0459 35.0828C20.8688 35.2582 20.583 35.2568 20.4077 35.0796C20.2323 34.9025 20.2337 34.6167 20.4109 34.4414L29.838 25.1079L20.6758 15.6535C20.5023 15.4745 20.507 15.1889 20.6862 15.0157C20.8654 14.8425 21.1513 14.8472 21.3248 15.0262L30.5918 24.5886C30.5989 24.5959 30.6057 24.6034 30.6122 24.6111C30.7006 24.6269 30.7852 24.6692 30.8532 24.7379Z" fill="white" fill-opacity="0.6"/>
</svg>
