<svg width="40" height="40" viewBox="0 0 40 40" fill="none" xmlns="http://www.w3.org/2000/svg">
<path d="M20 0C31.0461 0 40 8.95391 40 20C40 31.0461 31.0461 40 20 40C8.95391 40 0 31.0461 0 20C0 8.95391 8.95391 0 20 0ZM26.8991 28.1522C27.267 27.0235 28.9904 15.7748 29.2035 13.5583C29.2678 12.887 29.0557 12.4409 28.64 12.2417C28.1374 12 27.393 12.1209 26.5296 12.4322C25.3452 12.8591 10.2043 19.2878 9.32956 19.66C8.5 20.0122 7.71565 20.3965 7.71565 20.953C7.71565 21.3443 7.94783 21.5643 8.58783 21.793C9.25391 22.0304 10.9313 22.5391 11.9217 22.8122C12.8757 23.0757 13.9617 22.847 14.5704 22.4687C15.2157 22.0678 22.6617 17.0852 23.1965 16.6487C23.7304 16.2122 24.1565 16.7713 23.72 17.2087C23.2835 17.6452 18.1722 22.6061 17.4983 23.293C16.68 24.127 17.2609 24.9913 17.8096 25.3374C18.4365 25.7322 22.9452 28.7565 23.6243 29.2417C24.3035 29.727 24.9922 29.947 25.6226 29.947C26.253 29.947 26.5852 29.1165 26.8991 28.1522Z" fill="white"/>
</svg>
