<svg width="18" height="11" viewBox="0 0 18 11" fill="none" xmlns="http://www.w3.org/2000/svg">
<path fill-rule="evenodd" clip-rule="evenodd" d="M15.0265 10.3882H16.9558C17.0658 10.3881 17.1737 10.3585 17.2683 10.3023C17.3628 10.2461 17.4404 10.1655 17.4931 10.069C17.5457 9.9724 17.5713 9.86345 17.5672 9.75356C17.5632 9.64367 17.5296 9.53691 17.47 9.44449C16.3899 7.756 15.388 6.74228 14.7463 6.19397C14.5798 6.05274 14.4761 5.85122 14.4581 5.63364C14.44 5.41605 14.509 5.20019 14.6499 5.03343C15.6344 3.87384 16.6806 1.89736 17.2178 0.819965C17.2573 0.740372 17.2759 0.651992 17.2718 0.563203C17.2676 0.474414 17.2408 0.388158 17.194 0.31261C17.1472 0.237063 17.0818 0.174728 17.0041 0.131513C16.9265 0.0882983 16.839 0.065636 16.7502 0.0656739H14.6215C14.4704 0.0656673 14.3223 0.108512 14.1946 0.189237C14.0668 0.269962 13.9645 0.38526 13.8997 0.521753C13.5644 1.22633 12.8962 2.58394 12.3486 3.40523C11.9135 4.05813 11.4404 4.639 10.8881 5.03218C10.8395 5.06671 10.7823 5.08721 10.7229 5.09143C10.6634 5.09564 10.604 5.08342 10.551 5.05609C10.498 5.02875 10.4536 4.98737 10.4226 4.93648C10.3916 4.88558 10.3752 4.82713 10.3751 4.76752V0.650101C10.3751 0.495143 10.3136 0.346537 10.204 0.236971C10.0944 0.127405 9.9458 0.0658515 9.79084 0.0658515H6.78163C6.69187 0.0658513 6.60401 0.0916687 6.52852 0.140224C6.45303 0.18878 6.39309 0.258024 6.35587 0.3397C6.31864 0.421375 6.3057 0.512034 6.31857 0.600865C6.33145 0.689695 6.3696 0.772948 6.42848 0.840693C6.83711 1.31305 7.09891 1.91743 7.09891 2.52152V5.57824C7.09885 5.64275 7.08063 5.70595 7.04634 5.7606C7.01206 5.81525 6.96309 5.85915 6.90503 5.88727C6.84697 5.9154 6.78216 5.92663 6.71803 5.91966C6.65389 5.91269 6.59301 5.88782 6.54234 5.84788C4.88064 4.54385 3.94057 1.92515 3.57762 0.711216C3.52179 0.524666 3.40724 0.361118 3.25101 0.244894C3.09478 0.128671 2.9052 0.0659813 2.71048 0.0661488H0.758703C0.664167 0.0660761 0.570901 0.0879136 0.486224 0.129948C0.401548 0.171983 0.327765 0.23307 0.270668 0.308415C0.21357 0.383761 0.174712 0.471314 0.157142 0.564203C0.139573 0.657091 0.14377 0.752788 0.169405 0.843782C0.610339 2.39632 1.36647 4.31115 3.06274 6.7819C5.05353 9.68194 7.55196 10.3882 8.71214 10.3882H9.60429C9.70549 10.3882 9.80571 10.3682 9.89921 10.3295C9.99271 10.2908 10.0777 10.234 10.1492 10.1624C10.2208 10.0909 10.2775 10.0059 10.3162 9.91238C10.355 9.81887 10.3749 9.71865 10.3749 9.61744V7.70926C10.375 7.63272 10.3944 7.55746 10.4314 7.49042C10.4683 7.42339 10.5216 7.36674 10.5862 7.32573C10.6508 7.28472 10.7247 7.26066 10.8011 7.25577C10.8775 7.25089 10.9539 7.26534 11.0232 7.29779C12.22 7.85103 13.3599 9.13909 13.9385 9.86553C14.0689 10.0288 14.2344 10.1606 14.4228 10.2511C14.6112 10.3416 14.8175 10.3884 15.0265 10.3882Z" fill="white"/>
</svg>
