<svg width="23" height="14" viewBox="0 0 23 14" fill="none" xmlns="http://www.w3.org/2000/svg">
<path fill-rule="evenodd" clip-rule="evenodd" d="M18.9196 13.1468H21.3257C21.4628 13.1467 21.5974 13.1089 21.7153 13.0374C21.8332 12.9659 21.93 12.8632 21.9957 12.7402C22.0613 12.6172 22.0932 12.4785 22.0882 12.3385C22.0831 12.1986 22.0412 12.0626 21.9669 11.9449C20.6199 9.79442 19.3706 8.50335 18.5703 7.80501C18.3626 7.62515 18.2333 7.36849 18.2108 7.09137C18.1883 6.81426 18.2743 6.53933 18.45 6.32694C19.6778 4.85009 20.9825 2.33283 21.6523 0.960668C21.7017 0.859297 21.7249 0.746736 21.7197 0.633654C21.7145 0.520573 21.6811 0.410716 21.6227 0.314499C21.5643 0.218282 21.4828 0.138892 21.3859 0.0838532C21.2891 0.0288146 21.1801 -4.81662e-05 21.0692 6.03368e-08H18.4146C18.2262 -8.26671e-06 18.0416 0.0545583 17.8822 0.15737C17.7229 0.260182 17.5954 0.407026 17.5144 0.580864C17.0964 1.47822 16.2631 3.20727 15.5802 4.25326C15.0375 5.08481 14.4476 5.8246 13.7588 6.32535C13.6982 6.36933 13.6269 6.39544 13.5528 6.40081C13.4786 6.40618 13.4045 6.39061 13.3384 6.3558C13.2724 6.32099 13.217 6.26829 13.1783 6.20347C13.1396 6.13864 13.1191 6.0642 13.1191 5.98829V0.744328C13.1191 0.546973 13.0423 0.357708 12.9057 0.218164C12.769 0.0786204 12.5837 0.000226287 12.3905 0.000226288H8.63777C8.52583 0.000225976 8.41626 0.0331071 8.32212 0.0949476C8.22798 0.156788 8.15324 0.244978 8.10681 0.349C8.06039 0.453022 8.04424 0.568486 8.0603 0.68162C8.07636 0.794755 8.12394 0.900786 8.19737 0.987067C8.70695 1.58866 9.03344 2.3584 9.03344 3.12777V7.02082C9.03336 7.10298 9.01064 7.18347 8.96788 7.25307C8.92513 7.32267 8.86405 7.37858 8.79165 7.41441C8.71925 7.45023 8.63843 7.46452 8.55845 7.45565C8.47846 7.44678 8.40254 7.4151 8.33935 7.36424C6.2671 5.70342 5.09476 2.36823 4.64214 0.822164C4.57252 0.584574 4.42968 0.376278 4.23484 0.228256C4.04 0.0802331 3.80359 0.00039164 3.56076 0.000604873H1.12676C1.00887 0.000512382 0.892558 0.0283246 0.78696 0.0818598C0.681363 0.135395 0.589351 0.213196 0.518146 0.309156C0.446942 0.405116 0.398483 0.516624 0.376572 0.634928C0.354662 0.753231 0.359896 0.875111 0.391865 0.991001C0.94174 2.96831 1.88469 5.40705 4.00005 8.5538C6.48271 12.2473 9.59842 13.1468 11.0453 13.1468H12.1578C12.284 13.1468 12.409 13.1214 12.5256 13.0721C12.6422 13.0227 12.7482 12.9504 12.8374 12.8593C12.9266 12.7681 12.9974 12.6599 13.0457 12.5408C13.094 12.4217 13.1188 12.2941 13.1188 12.1652V9.73489C13.1189 9.63742 13.1432 9.54156 13.1893 9.45618C13.2353 9.3708 13.3017 9.29866 13.3823 9.24643C13.4629 9.19419 13.5551 9.16355 13.6503 9.15733C13.7456 9.15111 13.8408 9.16951 13.9273 9.21084C15.4198 9.91545 16.8413 11.5559 17.5629 12.4811C17.7255 12.6891 17.9319 12.8569 18.1668 12.9721C18.4017 13.0874 18.659 13.1471 18.9196 13.1468Z" fill="white"/>
</svg>
