<svg width="40" height="40" viewBox="0 0 40 40" fill="none" xmlns="http://www.w3.org/2000/svg">
<path d="M20.2 0.325928C9.37821 0.325928 0.605469 9.08713 0.605469 19.8946C0.605469 30.7022 9.37821 39.4634 20.2 39.4634C31.0217 39.4634 39.7944 30.7022 39.7944 19.8946C39.7944 9.08713 31.0217 0.325928 20.2 0.325928ZM30.6373 26.5373H28.1509C27.8816 26.5376 27.6157 26.4773 27.3729 26.3608C27.1302 26.2444 26.9169 26.0748 26.7488 25.8646C26.0031 24.9297 24.5342 23.2719 22.9918 22.5599C22.9025 22.5181 22.804 22.4995 22.7056 22.5058C22.6071 22.5121 22.5119 22.5431 22.4286 22.5959C22.3453 22.6486 22.2767 22.7215 22.2291 22.8078C22.1815 22.8941 22.1565 22.991 22.1563 23.0895V25.5453C22.1563 25.6756 22.1306 25.8046 22.0807 25.9249C22.0308 26.0453 21.9577 26.1546 21.8655 26.2468C21.7733 26.3389 21.6638 26.4119 21.5433 26.4618C21.4228 26.5117 21.2936 26.5373 21.1632 26.5373H20.0135C18.5183 26.5373 15.2986 25.6284 12.733 21.8959C10.547 18.716 9.57255 16.2516 9.00431 14.2534C8.97127 14.1363 8.96586 14.0132 8.9885 13.8936C9.01115 13.7741 9.06122 13.6614 9.13481 13.5644C9.20839 13.4674 9.30347 13.3888 9.4126 13.3347C9.52172 13.2806 9.64192 13.2525 9.76375 13.2526H12.279C12.53 13.2524 12.7743 13.3331 12.9756 13.4826C13.177 13.6322 13.3246 13.8427 13.3965 14.0828C13.8643 15.6452 15.0758 19.0155 17.2172 20.6938C17.2825 20.7452 17.361 20.7772 17.4436 20.7862C17.5263 20.7952 17.6098 20.7807 17.6846 20.7445C17.7595 20.7083 17.8226 20.6518 17.8668 20.5815C17.9109 20.5112 17.9344 20.4298 17.9345 20.3468V16.4127C17.9345 15.6352 17.5971 14.8574 17.0705 14.2495C16.9946 14.1623 16.9454 14.0551 16.9289 13.9408C16.9123 13.8265 16.9289 13.7098 16.9769 13.6047C17.0249 13.4995 17.1021 13.4104 17.1994 13.3479C17.2967 13.2854 17.4099 13.2522 17.5256 13.2522H21.4036C21.6033 13.2522 21.7949 13.3314 21.9361 13.4724C22.0773 13.6135 22.1566 13.8047 22.1566 14.0042V19.3034C22.1567 19.3801 22.1778 19.4553 22.2178 19.5208C22.2577 19.5863 22.315 19.6396 22.3833 19.6748C22.4515 19.7099 22.5282 19.7257 22.6048 19.7203C22.6814 19.7148 22.755 19.6884 22.8177 19.644C23.5295 19.138 24.1391 18.3904 24.6999 17.5501C25.4056 16.4931 26.2667 14.7458 26.6987 13.839C26.7824 13.6633 26.9142 13.5149 27.0788 13.411C27.2435 13.3071 27.4342 13.252 27.629 13.252H30.3722C30.4868 13.2519 30.5995 13.2811 30.6996 13.3367C30.7997 13.3923 30.8839 13.4726 30.9442 13.5698C31.0046 13.667 31.0391 13.778 31.0444 13.8923C31.0498 14.0066 31.0258 14.1203 30.9749 14.2228C30.2826 15.6094 28.9343 18.1532 27.6656 19.6456C27.484 19.8602 27.3951 20.1381 27.4184 20.4181C27.4417 20.6981 27.5753 20.9575 27.7898 21.1392C28.6169 21.8449 29.9079 23.1496 31.2999 25.3228C31.3767 25.4417 31.42 25.5791 31.4252 25.7205C31.4305 25.862 31.3974 26.0022 31.3296 26.1265C31.2618 26.2507 31.1618 26.3545 31.0399 26.4268C30.9181 26.4991 30.779 26.5373 30.6373 26.5373Z" fill="white"/>
</svg>
