<svg width="40" height="40" viewBox="0 0 40 40" fill="none" xmlns="http://www.w3.org/2000/svg">
<path d="M19.5817 0.569824C8.78457 0.569824 0.000126363 9.34852 0.000126363 20.1385C0.000126363 23.5078 0.871079 26.8208 2.52274 29.7442L0.031627 38.6267C-0.0501046 38.9186 0.029073 39.2317 0.240213 39.4486C0.402825 39.6162 0.624181 39.7073 0.851497 39.7073C0.919607 39.7073 0.988568 39.6988 1.05583 39.6826L10.3324 37.3862C13.1649 38.9058 16.355 39.7073 19.5817 39.7073C30.3787 39.7073 39.1632 30.9286 39.1632 20.1385C39.1632 9.34852 30.3787 0.569824 19.5817 0.569824ZM29.432 27.0438C29.0131 28.2026 27.0039 29.2601 26.0385 29.4022C25.1718 29.529 24.0752 29.5834 22.8714 29.2057C22.1417 28.976 21.2052 28.6714 20.0056 28.16C14.963 26.0109 11.6699 21.0004 11.4179 20.6695C11.1667 20.3385 9.36521 17.98 9.36521 15.539C9.36521 13.0981 10.6635 11.8976 11.125 11.4007C11.5864 10.9038 12.1305 10.7796 12.4659 10.7796C12.8013 10.7796 13.1359 10.7838 13.4297 10.7975C13.7387 10.8128 14.1533 10.6809 14.5611 11.6491C14.98 12.6429 15.9855 15.0839 16.1098 15.3331C16.2358 15.5816 16.3192 15.8717 16.1523 16.2027C15.9855 16.5336 15.902 16.7404 15.65 17.0305C15.398 17.3206 15.1222 17.6771 14.8957 17.9001C14.6437 18.1476 14.3823 18.4156 14.6752 18.9125C14.9681 19.4094 15.977 21.0336 17.472 22.349C19.3918 24.0387 21.012 24.5628 21.5143 24.8112C22.0166 25.0597 22.3103 25.018 22.6032 24.687C22.896 24.3552 23.8598 23.2381 24.1944 22.742C24.529 22.246 24.8644 22.3277 25.3259 22.4936C25.7873 22.6587 28.2588 23.8583 28.7611 24.1067C29.2634 24.3552 29.5989 24.4794 29.7249 24.6861C29.8509 24.892 29.8509 25.8858 29.432 27.0438Z" fill="white"/>
</svg>
